<svg xmlns="http://www.w3.org/2000/svg" width="1920" zoomAndPan="magnify" viewBox="0 0 1440 1439.999935" height="1920"
     preserveAspectRatio="xMidYMid meet" version="1.0"><defs><clipPath id="878e22fe62"><path d="M 689 1038 L 1059 1038 L 1059 1410.75 L 689 1410.75 Z M 689 1038 " clip-rule="nonzero"/></clipPath></defs><path fill="#f0bc68" d="M 350.304688 275.816406 C 458.839844 95.007812 729.226562 0 921.667969 93.921875 C 1058.351562 160.78125 1148.753906 313.167969 1141.445312 465.289062 C 1137.65625 543.511719 1110.859375 618.757812 1080.277344 691.027344 C 1065.660156 725.675781 1049.960938 760.59375 1044.820312 797.675781 C 1038.050781 847.75 1051.042969 900.53125 1033.992188 948.167969 C 1031.554688 955.207031 1028.039062 962.515625 1022.355469 967.386719 C 1016.671875 971.988281 1009.632812 974.425781 1002.597656 976.320312 C 923.832031 999.328125 843.988281 1017.730469 763.0625 1031.808594 C 735.722656 1036.410156 707.847656 1040.738281 680.78125 1036.410156 C 669.683594 1034.785156 658.042969 1031.265625 650.464844 1022.875 C 644.242188 1016.109375 641.535156 1006.90625 638.558594 997.972656 C 610.679688 911.628906 568.996094 840.710938 487.527344 800.652344 C 350.304688 733.253906 291.027344 581.136719 291.570312 480.714844 C 291.839844 417.378906 317.554688 330.222656 350.304688 275.816406 Z M 350.304688 275.816406 " fill-opacity="1" fill-rule="nonzero"/><g clip-path="url(#878e22fe62)"><path fill="#6e7e74" d="M 835.597656 1148.46875 C 807.71875 1153.878906 721.109375 1185.550781 697.289062 1166.601562 C 674.554688 1148.738281 706.761719 1121.398438 722.191406 1110.300781 C 757.105469 1085.941406 804.742188 1081.882812 845.339844 1072.949219 C 894.332031 1061.851562 943.589844 1051.296875 992.582031 1041.011719 C 1011.527344 1036.949219 1035.347656 1035.054688 1045.902344 1051.023438 C 1054.292969 1063.746094 1048.878906 1081.609375 1037.78125 1092.167969 C 1026.683594 1102.453125 1011.527344 1107.054688 996.910156 1111.113281 C 943.863281 1125.730469 889.730469 1137.640625 835.597656 1148.46875 Z M 734.101562 1294.632812 C 738.160156 1296.527344 742.761719 1295.984375 747.09375 1295.171875 C 778.757812 1289.488281 810.15625 1281.636719 841.550781 1273.789062 C 897.039062 1259.714844 952.792969 1245.640625 1008.28125 1231.5625 C 1031.015625 1225.878906 1058.621094 1214.242188 1058.894531 1190.691406 C 1059.164062 1174.179688 1043.464844 1160.917969 1027.226562 1157.671875 C 1010.984375 1154.421875 994.207031 1159.023438 978.507812 1163.355469 C 917.878906 1180.136719 856.980469 1197.1875 796.351562 1213.96875 C 775.78125 1219.65625 737.347656 1222.632812 721.921875 1238.332031 C 708.65625 1252.136719 717.046875 1285.96875 734.101562 1294.632812 Z M 760.894531 1366.628906 C 780.925781 1370.691406 803.660156 1363.109375 823.417969 1359.050781 C 849.402344 1353.636719 875.113281 1347.683594 901.097656 1341.1875 C 925.726562 1335.230469 950.085938 1329.007812 974.71875 1323.050781 C 998.804688 1317.097656 1023.4375 1312.765625 1044.820312 1299.503906 C 1050.773438 1295.714844 1048.066406 1287.050781 1041.300781 1286.511719 C 1017.480469 1284.886719 994.746094 1292.195312 971.742188 1298.148438 C 946.027344 1304.644531 920.316406 1311.414062 894.601562 1317.910156 C 869.972656 1324.132812 845.613281 1330.628906 821.523438 1337.9375 C 801.222656 1343.894531 776.324219 1347.953125 759.8125 1361.757812 C 757.648438 1362.839844 758.730469 1366.089844 760.894531 1366.628906 Z M 850.484375 1410.75 C 871.054688 1410.75 892.4375 1403.710938 912.195312 1398.027344 C 932.496094 1392.34375 953.066406 1386.660156 971.46875 1376.375 C 976.070312 1373.9375 974.445312 1365.546875 968.761719 1366.089844 C 947.652344 1368.253906 927.621094 1375.292969 907.59375 1381.246094 C 887.835938 1387.203125 866.183594 1391.800781 848.046875 1401.816406 C 843.988281 1403.984375 845.882812 1410.75 850.484375 1410.75 Z M 850.484375 1410.75 " fill-opacity="1" fill-rule="nonzero"/></g></svg>