<svg width="291" height="50" viewBox="0 0 291 50" fill="none" xmlns="http://www.w3.org/2000/svg">
<path d="M36.2812 13.9062C34.9062 12.5312 33.2604 11.4688 31.3438 10.7188C29.4479 9.96875 27.4167 9.59375 25.25 9.59375C23.0833 9.59375 21.1042 9.96875 19.3125 10.7188C17.5208 11.4688 15.9792 12.5417 14.6875 13.9375C13.3958 15.3333 12.3958 17 11.6875 18.9375C10.9792 20.8542 10.625 23 10.625 25.375C10.625 27.75 10.9792 29.9271 11.6875 31.9062C12.4167 33.8854 13.4375 35.5938 14.75 37.0312C16.0833 38.4479 17.6562 39.5521 19.4688 40.3438C21.3021 41.1354 23.3229 41.5312 25.5312 41.5312C27.3646 41.5312 29.0417 41.25 30.5625 40.6875C32.1042 40.125 33.4583 39.3229 34.625 38.2812C35.7917 37.2396 36.75 35.9792 37.5 34.5C38.2708 33.0208 38.8021 31.3646 39.0938 29.5312H25.5V22.1875H47.5625L47.8438 25.8125C47.8438 29.375 47.2917 32.6354 46.1875 35.5938C45.1042 38.5521 43.5625 41.1042 41.5625 43.25C39.5625 45.375 37.1771 47.0208 34.4062 48.1875C31.6562 49.3542 28.6042 49.9375 25.25 49.9375C21.7708 49.9375 18.5417 49.3229 15.5625 48.0938C12.6042 46.8646 10.0104 45.1458 7.78125 42.9375C5.57292 40.7292 3.85417 38.1458 2.625 35.1875C1.39583 32.2083 0.78125 28.9896 0.78125 25.5312C0.78125 22.0729 1.38542 18.875 2.59375 15.9375C3.82292 12.9792 5.53125 10.3958 7.71875 8.1875C9.92708 5.97917 12.5 4.26042 15.4375 3.03125C18.375 1.80208 21.5729 1.1875 25.0312 1.1875C28.2604 1.1875 31.3854 1.75 34.4062 2.875C37.4271 4 40.125 5.60417 42.5 7.6875L36.2812 13.9062ZM81.7188 49H73.9062L73.4375 45.2812C72.2917 46.6562 70.875 47.7292 69.1875 48.5C67.5 49.25 65.6458 49.625 63.625 49.625C61.4375 49.625 59.4896 49.2083 57.7812 48.375C56.0729 47.5208 54.7292 46.3542 53.75 44.875C52.7708 43.375 52.2812 41.6771 52.2812 39.7812C52.2812 37.7812 52.8125 36.0208 53.875 34.5C54.9375 32.9792 56.3958 31.7917 58.25 30.9375C60.125 30.0625 62.25 29.625 64.625 29.625C66.0208 29.625 67.4167 29.7812 68.8125 30.0938C70.2292 30.4062 71.5417 30.8438 72.75 31.4062V30.5938C72.75 29.3438 72.3958 28.2708 71.6875 27.375C71 26.4583 70.0417 25.75 68.8125 25.25C67.6042 24.75 66.25 24.5 64.75 24.5C63.3125 24.5 61.8854 24.7292 60.4688 25.1875C59.0729 25.6458 57.7812 26.3333 56.5938 27.25L54.1562 20.4062C56.2604 19.3229 58.3854 18.5104 60.5312 17.9688C62.6979 17.4062 64.7917 17.125 66.8125 17.125C69.8542 17.125 72.4896 17.7292 74.7188 18.9375C76.9479 20.125 78.6667 21.8125 79.875 24C81.1042 26.1667 81.7188 28.7396 81.7188 31.7188V49ZM65.5938 42.7188C66.7812 42.7188 67.9167 42.4583 69 41.9375C70.0833 41.4167 70.9583 40.7083 71.625 39.8125C72.3125 38.9167 72.6771 37.9271 72.7188 36.8438V36.625C71.8021 36 70.7812 35.5208 69.6562 35.1875C68.5521 34.8333 67.4271 34.6562 66.2812 34.6562C64.5729 34.6562 63.1771 35.0312 62.0938 35.7812C61.0104 36.5312 60.4688 37.5 60.4688 38.6875C60.4688 39.4583 60.6875 40.1562 61.125 40.7812C61.5833 41.3854 62.1979 41.8646 62.9688 42.2188C63.7396 42.5521 64.6146 42.7188 65.5938 42.7188ZM98.3125 49H88.7188V0.875H98.3125V49ZM133.844 49H126.031L125.562 45.2812C124.417 46.6562 123 47.7292 121.312 48.5C119.625 49.25 117.771 49.625 115.75 49.625C113.562 49.625 111.615 49.2083 109.906 48.375C108.198 47.5208 106.854 46.3542 105.875 44.875C104.896 43.375 104.406 41.6771 104.406 39.7812C104.406 37.7812 104.938 36.0208 106 34.5C107.062 32.9792 108.521 31.7917 110.375 30.9375C112.25 30.0625 114.375 29.625 116.75 29.625C118.146 29.625 119.542 29.7812 120.938 30.0938C122.354 30.4062 123.667 30.8438 124.875 31.4062V30.5938C124.875 29.3438 124.521 28.2708 123.812 27.375C123.125 26.4583 122.167 25.75 120.938 25.25C119.729 24.75 118.375 24.5 116.875 24.5C115.438 24.5 114.01 24.7292 112.594 25.1875C111.198 25.6458 109.906 26.3333 108.719 27.25L106.281 20.4062C108.385 19.3229 110.51 18.5104 112.656 17.9688C114.823 17.4062 116.917 17.125 118.938 17.125C121.979 17.125 124.615 17.7292 126.844 18.9375C129.073 20.125 130.792 21.8125 132 24C133.229 26.1667 133.844 28.7396 133.844 31.7188V49ZM117.719 42.7188C118.906 42.7188 120.042 42.4583 121.125 41.9375C122.208 41.4167 123.083 40.7083 123.75 39.8125C124.438 38.9167 124.802 37.9271 124.844 36.8438V36.625C123.927 36 122.906 35.5208 121.781 35.1875C120.677 34.8333 119.552 34.6562 118.406 34.6562C116.698 34.6562 115.302 35.0312 114.219 35.7812C113.135 36.5312 112.594 37.5 112.594 38.6875C112.594 39.4583 112.812 40.1562 113.25 40.7812C113.708 41.3854 114.323 41.8646 115.094 42.2188C115.865 42.5521 116.74 42.7188 117.719 42.7188ZM173.031 49H165.156L164.688 44.75C163.354 46.25 161.75 47.4375 159.875 48.3125C158.021 49.1875 155.99 49.625 153.781 49.625C150.927 49.625 148.375 48.9271 146.125 47.5312C143.896 46.1146 142.135 44.1771 140.844 41.7188C139.552 39.2604 138.906 36.4792 138.906 33.375C138.906 30.25 139.552 27.4688 140.844 25.0312C142.135 22.5729 143.896 20.6458 146.125 19.25C148.375 17.8333 150.927 17.125 153.781 17.125C155.823 17.125 157.719 17.5 159.469 18.25C161.24 18.9792 162.771 20 164.062 21.3125V2.125H173.031V49ZM156.094 41.5938C157.573 41.5938 158.906 41.2604 160.094 40.5938C161.302 39.9271 162.26 39.0208 162.969 37.875C163.698 36.7083 164.062 35.3854 164.062 33.9062V32.7812C164.062 31.3021 163.698 29.9896 162.969 28.8438C162.26 27.6979 161.302 26.8021 160.094 26.1562C158.906 25.4896 157.573 25.1562 156.094 25.1562C154.573 25.1562 153.208 25.5104 152 26.2188C150.792 26.9271 149.833 27.9062 149.125 29.1562C148.438 30.3854 148.094 31.7917 148.094 33.375C148.094 34.9375 148.438 36.3438 149.125 37.5938C149.833 38.8229 150.792 39.8021 152 40.5312C153.208 41.2396 154.573 41.5938 156.094 41.5938ZM189.625 49H180.656V17.75H188.469L188.781 23.1562C189.823 21.2604 191.24 19.7812 193.031 18.7188C194.823 17.6562 196.875 17.125 199.188 17.125C199.854 17.125 200.521 17.1771 201.188 17.2812C201.875 17.3646 202.573 17.5 203.281 17.6875L202.156 25.75C200.781 25.3542 199.479 25.1562 198.25 25.1562C196.521 25.1562 195 25.5521 193.688 26.3438C192.396 27.1146 191.396 28.1979 190.688 29.5938C189.979 30.9688 189.625 32.5833 189.625 34.4375V49ZM211.938 10.2812C210.75 10.2812 209.75 9.86458 208.938 9.03125C208.125 8.19792 207.719 7.1875 207.719 6C207.719 4.8125 208.125 3.8125 208.938 3C209.75 2.16667 210.75 1.75 211.938 1.75C213.146 1.75 214.156 2.16667 214.969 3C215.802 3.8125 216.219 4.8125 216.219 6C216.219 7.1875 215.802 8.19792 214.969 9.03125C214.156 9.86458 213.146 10.2812 211.938 10.2812ZM216.438 49H207.469V17.75H216.438V49ZM275 49H266.031V33.3125C266.031 30.7083 265.521 28.6979 264.5 27.2812C263.479 25.8646 262.031 25.1562 260.156 25.1562C258.24 25.1562 256.74 25.875 255.656 27.3125C254.594 28.75 254.062 30.75 254.062 33.3125V49H245.094V33.3125C245.094 30.7083 244.583 28.6979 243.562 27.2812C242.542 25.8646 241.083 25.1562 239.188 25.1562C237.292 25.1562 235.802 25.875 234.719 27.3125C233.656 28.75 233.125 30.75 233.125 33.3125V49H224.156V17.75H231.312L231.625 22.9062C232.667 21.0104 234.062 19.5729 235.812 18.5938C237.583 17.6146 239.635 17.125 241.969 17.125C244.406 17.125 246.51 17.6354 248.281 18.6562C250.052 19.6771 251.417 21.1458 252.375 23.0625C253.438 21.125 254.844 19.6562 256.594 18.6562C258.365 17.6354 260.458 17.125 262.875 17.125C266.688 17.125 269.656 18.3438 271.781 20.7812C273.927 23.1979 275 26.5833 275 30.9375V49Z" fill="black"/>
<path d="M285.781 49.625C284.531 49.625 283.51 49.2396 282.719 48.4688C281.948 47.6771 281.562 46.6458 281.562 45.375C281.562 44.1042 281.948 43.0833 282.719 42.3125C283.51 41.5208 284.531 41.125 285.781 41.125C287.052 41.125 288.083 41.5208 288.875 42.3125C289.667 43.0833 290.062 44.1042 290.062 45.375C290.062 46.6458 289.667 47.6771 288.875 48.4688C288.083 49.2396 287.052 49.625 285.781 49.625Z" fill="#FD2A5E"/>
</svg>
