<svg xmlns="http://www.w3.org/2000/svg" width="1920" zoomAndPan="magnify" viewBox="0 0 1440 1439.999935" height="1920"
     preserveAspectRatio="xMidYMid meet" version="1.0"><defs><g/><clipPath id="da29f2d772"><path d="M 383 893 L 755 893 L 755 1103 L 383 1103 Z M 383 893 " clip-rule="nonzero"/></clipPath><clipPath id="50ce018837"><path d="M 413.949219 1075.472656 C 413.949219 1073.378906 412.25 1071.679688 410.15625 1071.679688 C 408.0625 1071.679688 406.363281 1073.378906 406.363281 1075.472656 C 406.363281 1077.566406 408.0625 1079.265625 410.15625 1079.265625 C 412.25 1079.265625 413.949219 1077.566406 413.949219 1075.472656 Z M 400.800781 1050.628906 C 367.808594 1063.050781 386.519531 1112.742188 419.511719 1100.316406 C 419.511719 1100.316406 419.550781 1100.300781 419.632812 1100.273438 C 423.601562 1098.773438 523.648438 1060.933594 623.335938 1010.59375 C 665.433594 989.332031 707.449219 965.839844 742.34375 941.933594 C 771.429688 922.007812 741.421875 878.207031 712.335938 898.132812 C 679.230469 920.8125 639.335938 943.03125 599.402344 963.199219 C 502.261719 1012.25 404.773438 1049.132812 400.910156 1050.585938 C 400.839844 1050.613281 400.800781 1050.628906 400.800781 1050.628906 " clip-rule="nonzero"/></clipPath><clipPath id="280ed7d904"><path d="M 700 307 L 1389 307 L 1389 948 L 700 948 Z M 700 307 " clip-rule="nonzero"/></clipPath><clipPath id="d6981d12c8"><path d="M 731.132812 920.03125 C 731.132812 917.9375 729.433594 916.242188 727.339844 916.242188 C 725.246094 916.242188 723.546875 917.9375 723.546875 920.03125 C 723.546875 922.128906 725.246094 923.824219 727.339844 923.824219 C 729.433594 923.824219 731.132812 922.128906 731.132812 920.03125 Z M 712.335938 898.132812 C 683.25 918.058594 713.261719 961.859375 742.34375 941.933594 C 810.914062 894.957031 916.613281 801.757812 1022.492188 702.847656 C 1036.6875 689.585938 1050.886719 676.222656 1065 662.855469 C 1226.953125 509.5 1377.621094 355.875 1380.621094 352.820312 C 1380.652344 352.789062 1380.667969 352.773438 1380.667969 352.773438 C 1405.347656 327.59375 1367.429688 290.429688 1342.75 315.605469 C 1342.75 315.605469 1342.734375 315.621094 1342.707031 315.652344 C 1339.722656 318.691406 1189.726562 471.628906 1028.496094 624.304688 C 1014.46875 637.585938 1000.355469 650.867188 986.246094 664.046875 C 882.675781 760.804688 779.417969 852.175781 712.335938 898.132812 M 1365.5 334.1875 C 1365.5 332.09375 1363.804688 330.394531 1361.707031 330.394531 C 1359.613281 330.394531 1357.914062 332.09375 1357.914062 334.1875 C 1357.914062 336.28125 1359.613281 337.980469 1361.707031 337.980469 C 1363.804688 337.980469 1365.5 336.28125 1365.5 334.1875 Z M 1365.5 334.1875 " clip-rule="nonzero"/></clipPath></defs><g fill="#000000" fill-opacity="1"><g transform="translate(370.820758, 1326.171395)"><g><path d="M 1.296875 -1.765625 C 1.296875 -3.460938 1.5625 -5.03125 2.09375 -6.46875 C 2.625 -7.90625 3.273438 -9.195312 4.046875 -10.34375 C 4.828125 -11.5 5.851562 -12.859375 7.125 -14.421875 C 8.414062 -16.023438 9.441406 -17.390625 10.203125 -18.515625 C 10.960938 -19.640625 11.609375 -20.925781 12.140625 -22.375 C 12.679688 -23.832031 12.953125 -25.410156 12.953125 -27.109375 C 12.953125 -28.109375 12.804688 -28.890625 12.515625 -29.453125 C 12.222656 -30.015625 11.707031 -30.296875 10.96875 -30.296875 C 9.726562 -30.296875 9.109375 -29.1875 9.109375 -26.96875 L 9.109375 -22.4375 L 1.296875 -22.4375 L 1.203125 -24.734375 C 1.203125 -27.546875 1.488281 -29.859375 2.0625 -31.671875 C 2.644531 -33.484375 3.65625 -34.863281 5.09375 -35.8125 C 6.53125 -36.769531 8.515625 -37.25 11.046875 -37.25 C 14.148438 -37.25 16.550781 -36.375 18.25 -34.625 C 19.945312 -32.882812 20.796875 -30.421875 20.796875 -27.234375 C 20.796875 -25.191406 20.515625 -23.34375 19.953125 -21.6875 C 19.398438 -20.03125 18.710938 -18.582031 17.890625 -17.34375 C 17.066406 -16.113281 15.976562 -14.660156 14.625 -12.984375 C 13.644531 -11.804688 12.832031 -10.753906 12.1875 -9.828125 C 11.539062 -8.910156 10.957031 -7.960938 10.4375 -6.984375 L 20.546875 -6.984375 L 20.546875 0 L 1.296875 0 Z M 1.296875 -1.765625 "/></g></g></g><g fill="#000000" fill-opacity="1"><g transform="translate(392.137587, 1326.171395)"><g><path d="M 10.65625 0.34375 C 7.519531 0.34375 5.101562 -0.539062 3.40625 -2.3125 C 1.707031 -4.082031 0.859375 -6.601562 0.859375 -9.875 L 0.859375 -26.625 C 0.859375 -30.132812 1.675781 -32.8125 3.3125 -34.65625 C 4.957031 -36.5 7.40625 -37.421875 10.65625 -37.421875 C 13.9375 -37.421875 16.394531 -36.5 18.03125 -34.65625 C 19.675781 -32.8125 20.5 -30.132812 20.5 -26.625 L 20.5 -9.875 C 20.5 -6.570312 19.648438 -4.039062 17.953125 -2.28125 C 16.253906 -0.53125 13.820312 0.34375 10.65625 0.34375 Z M 10.65625 -6.46875 C 11.207031 -6.46875 11.65625 -6.71875 12 -7.21875 C 12.34375 -7.726562 12.515625 -8.328125 12.515625 -9.015625 L 12.515625 -27.3125 C 12.515625 -28.382812 12.390625 -29.195312 12.140625 -29.75 C 11.898438 -30.3125 11.40625 -30.59375 10.65625 -30.59375 C 9.90625 -30.59375 9.414062 -30.3125 9.1875 -29.75 C 8.957031 -29.195312 8.84375 -28.382812 8.84375 -27.3125 L 8.84375 -9.015625 C 8.84375 -8.328125 9.007812 -7.726562 9.34375 -7.21875 C 9.675781 -6.71875 10.113281 -6.46875 10.65625 -6.46875 Z M 10.65625 -6.46875 "/></g></g></g><g fill="#000000" fill-opacity="1"><g transform="translate(413.454416, 1326.171395)"><g><path d="M 5.09375 -28.5625 C 4.601562 -27.957031 3.914062 -27.46875 3.03125 -27.09375 C 2.15625 -26.726562 1.316406 -26.546875 0.515625 -26.546875 L 0.515625 -32.453125 C 1.785156 -32.648438 3.046875 -33.148438 4.296875 -33.953125 C 5.546875 -34.765625 6.441406 -35.816406 6.984375 -37.109375 L 12.953125 -37.109375 L 12.953125 0 L 5.09375 0 Z M 5.09375 -28.5625 "/></g></g></g><g fill="#000000" fill-opacity="1"><g transform="translate(427.73755, 1326.171395)"><g><path d="M 10.53125 0.34375 C 8.914062 0.34375 7.4375 0.0625 6.09375 -0.5 C 4.757812 -1.0625 3.691406 -1.890625 2.890625 -2.984375 C 2.085938 -4.078125 1.6875 -5.398438 1.6875 -6.953125 L 1.6875 -10.921875 L 8.796875 -10.921875 L 8.796875 -10.1875 C 8.796875 -8.945312 8.910156 -7.96875 9.140625 -7.25 C 9.378906 -6.53125 9.882812 -6.171875 10.65625 -6.171875 C 11.46875 -6.171875 12.035156 -6.394531 12.359375 -6.84375 C 12.691406 -7.289062 12.859375 -7.957031 12.859375 -8.84375 L 12.859375 -16.265625 C 12.515625 -15.609375 11.984375 -15.078125 11.265625 -14.671875 C 10.546875 -14.265625 9.695312 -14.0625 8.71875 -14.0625 C 6.707031 -14.0625 5.144531 -14.460938 4.03125 -15.265625 C 2.925781 -16.078125 2.15625 -17.273438 1.71875 -18.859375 C 1.289062 -20.441406 1.078125 -22.523438 1.078125 -25.109375 C 1.078125 -29.054688 1.820312 -32.09375 3.3125 -34.21875 C 4.8125 -36.351562 7.289062 -37.421875 10.75 -37.421875 C 13.28125 -37.421875 15.28125 -36.988281 16.75 -36.125 C 18.21875 -35.257812 19.253906 -33.960938 19.859375 -32.234375 C 20.460938 -30.503906 20.765625 -28.257812 20.765625 -25.5 L 20.765625 -15.5 C 20.765625 -11.664062 20.53125 -8.648438 20.0625 -6.453125 C 19.601562 -4.253906 18.640625 -2.570312 17.171875 -1.40625 C 15.703125 -0.238281 13.488281 0.34375 10.53125 0.34375 Z M 10.921875 -20.625 C 12.210938 -20.625 12.859375 -21.503906 12.859375 -23.265625 L 12.859375 -27.875 C 12.859375 -29.6875 12.238281 -30.59375 11 -30.59375 C 10.226562 -30.59375 9.734375 -30.28125 9.515625 -29.65625 C 9.296875 -29.039062 9.1875 -28.046875 9.1875 -26.671875 L 9.1875 -23.65625 C 9.1875 -21.632812 9.765625 -20.625 10.921875 -20.625 Z M 10.921875 -20.625 "/></g></g></g><g fill="#000000" fill-opacity="1"><g transform="translate(684.699137, 1326.171395)"><g><path d="M 1.296875 -1.765625 C 1.296875 -3.460938 1.5625 -5.03125 2.09375 -6.46875 C 2.625 -7.90625 3.273438 -9.195312 4.046875 -10.34375 C 4.828125 -11.5 5.851562 -12.859375 7.125 -14.421875 C 8.414062 -16.023438 9.441406 -17.390625 10.203125 -18.515625 C 10.960938 -19.640625 11.609375 -20.925781 12.140625 -22.375 C 12.679688 -23.832031 12.953125 -25.410156 12.953125 -27.109375 C 12.953125 -28.109375 12.804688 -28.890625 12.515625 -29.453125 C 12.222656 -30.015625 11.707031 -30.296875 10.96875 -30.296875 C 9.726562 -30.296875 9.109375 -29.1875 9.109375 -26.96875 L 9.109375 -22.4375 L 1.296875 -22.4375 L 1.203125 -24.734375 C 1.203125 -27.546875 1.488281 -29.859375 2.0625 -31.671875 C 2.644531 -33.484375 3.65625 -34.863281 5.09375 -35.8125 C 6.53125 -36.769531 8.515625 -37.25 11.046875 -37.25 C 14.148438 -37.25 16.550781 -36.375 18.25 -34.625 C 19.945312 -32.882812 20.796875 -30.421875 20.796875 -27.234375 C 20.796875 -25.191406 20.515625 -23.34375 19.953125 -21.6875 C 19.398438 -20.03125 18.710938 -18.582031 17.890625 -17.34375 C 17.066406 -16.113281 15.976562 -14.660156 14.625 -12.984375 C 13.644531 -11.804688 12.832031 -10.753906 12.1875 -9.828125 C 11.539062 -8.910156 10.957031 -7.960938 10.4375 -6.984375 L 20.546875 -6.984375 L 20.546875 0 L 1.296875 0 Z M 1.296875 -1.765625 "/></g></g></g><g fill="#000000" fill-opacity="1"><g transform="translate(706.015965, 1326.171395)"><g><path d="M 10.65625 0.34375 C 7.519531 0.34375 5.101562 -0.539062 3.40625 -2.3125 C 1.707031 -4.082031 0.859375 -6.601562 0.859375 -9.875 L 0.859375 -26.625 C 0.859375 -30.132812 1.675781 -32.8125 3.3125 -34.65625 C 4.957031 -36.5 7.40625 -37.421875 10.65625 -37.421875 C 13.9375 -37.421875 16.394531 -36.5 18.03125 -34.65625 C 19.675781 -32.8125 20.5 -30.132812 20.5 -26.625 L 20.5 -9.875 C 20.5 -6.570312 19.648438 -4.039062 17.953125 -2.28125 C 16.253906 -0.53125 13.820312 0.34375 10.65625 0.34375 Z M 10.65625 -6.46875 C 11.207031 -6.46875 11.65625 -6.71875 12 -7.21875 C 12.34375 -7.726562 12.515625 -8.328125 12.515625 -9.015625 L 12.515625 -27.3125 C 12.515625 -28.382812 12.390625 -29.195312 12.140625 -29.75 C 11.898438 -30.3125 11.40625 -30.59375 10.65625 -30.59375 C 9.90625 -30.59375 9.414062 -30.3125 9.1875 -29.75 C 8.957031 -29.195312 8.84375 -28.382812 8.84375 -27.3125 L 8.84375 -9.015625 C 8.84375 -8.328125 9.007812 -7.726562 9.34375 -7.21875 C 9.675781 -6.71875 10.113281 -6.46875 10.65625 -6.46875 Z M 10.65625 -6.46875 "/></g></g></g><g fill="#000000" fill-opacity="1"><g transform="translate(727.332794, 1326.171395)"><g><path d="M 1.296875 -1.765625 C 1.296875 -3.460938 1.5625 -5.03125 2.09375 -6.46875 C 2.625 -7.90625 3.273438 -9.195312 4.046875 -10.34375 C 4.828125 -11.5 5.851562 -12.859375 7.125 -14.421875 C 8.414062 -16.023438 9.441406 -17.390625 10.203125 -18.515625 C 10.960938 -19.640625 11.609375 -20.925781 12.140625 -22.375 C 12.679688 -23.832031 12.953125 -25.410156 12.953125 -27.109375 C 12.953125 -28.109375 12.804688 -28.890625 12.515625 -29.453125 C 12.222656 -30.015625 11.707031 -30.296875 10.96875 -30.296875 C 9.726562 -30.296875 9.109375 -29.1875 9.109375 -26.96875 L 9.109375 -22.4375 L 1.296875 -22.4375 L 1.203125 -24.734375 C 1.203125 -27.546875 1.488281 -29.859375 2.0625 -31.671875 C 2.644531 -33.484375 3.65625 -34.863281 5.09375 -35.8125 C 6.53125 -36.769531 8.515625 -37.25 11.046875 -37.25 C 14.148438 -37.25 16.550781 -36.375 18.25 -34.625 C 19.945312 -32.882812 20.796875 -30.421875 20.796875 -27.234375 C 20.796875 -25.191406 20.515625 -23.34375 19.953125 -21.6875 C 19.398438 -20.03125 18.710938 -18.582031 17.890625 -17.34375 C 17.066406 -16.113281 15.976562 -14.660156 14.625 -12.984375 C 13.644531 -11.804688 12.832031 -10.753906 12.1875 -9.828125 C 11.539062 -8.910156 10.957031 -7.960938 10.4375 -6.984375 L 20.546875 -6.984375 L 20.546875 0 L 1.296875 0 Z M 1.296875 -1.765625 "/></g></g></g><g fill="#000000" fill-opacity="1"><g transform="translate(748.649623, 1326.171395)"><g><path d="M 10.65625 0.34375 C 7.519531 0.34375 5.101562 -0.539062 3.40625 -2.3125 C 1.707031 -4.082031 0.859375 -6.601562 0.859375 -9.875 L 0.859375 -26.625 C 0.859375 -30.132812 1.675781 -32.8125 3.3125 -34.65625 C 4.957031 -36.5 7.40625 -37.421875 10.65625 -37.421875 C 13.9375 -37.421875 16.394531 -36.5 18.03125 -34.65625 C 19.675781 -32.8125 20.5 -30.132812 20.5 -26.625 L 20.5 -9.875 C 20.5 -6.570312 19.648438 -4.039062 17.953125 -2.28125 C 16.253906 -0.53125 13.820312 0.34375 10.65625 0.34375 Z M 10.65625 -6.46875 C 11.207031 -6.46875 11.65625 -6.71875 12 -7.21875 C 12.34375 -7.726562 12.515625 -8.328125 12.515625 -9.015625 L 12.515625 -27.3125 C 12.515625 -28.382812 12.390625 -29.195312 12.140625 -29.75 C 11.898438 -30.3125 11.40625 -30.59375 10.65625 -30.59375 C 9.90625 -30.59375 9.414062 -30.3125 9.1875 -29.75 C 8.957031 -29.195312 8.84375 -28.382812 8.84375 -27.3125 L 8.84375 -9.015625 C 8.84375 -8.328125 9.007812 -7.726562 9.34375 -7.21875 C 9.675781 -6.71875 10.113281 -6.46875 10.65625 -6.46875 Z M 10.65625 -6.46875 "/></g></g></g><g fill="#000000" fill-opacity="1"><g transform="translate(1005.392297, 1326.171395)"><g><path d="M 1.296875 -1.765625 C 1.296875 -3.460938 1.5625 -5.03125 2.09375 -6.46875 C 2.625 -7.90625 3.273438 -9.195312 4.046875 -10.34375 C 4.828125 -11.5 5.851562 -12.859375 7.125 -14.421875 C 8.414062 -16.023438 9.441406 -17.390625 10.203125 -18.515625 C 10.960938 -19.640625 11.609375 -20.925781 12.140625 -22.375 C 12.679688 -23.832031 12.953125 -25.410156 12.953125 -27.109375 C 12.953125 -28.109375 12.804688 -28.890625 12.515625 -29.453125 C 12.222656 -30.015625 11.707031 -30.296875 10.96875 -30.296875 C 9.726562 -30.296875 9.109375 -29.1875 9.109375 -26.96875 L 9.109375 -22.4375 L 1.296875 -22.4375 L 1.203125 -24.734375 C 1.203125 -27.546875 1.488281 -29.859375 2.0625 -31.671875 C 2.644531 -33.484375 3.65625 -34.863281 5.09375 -35.8125 C 6.53125 -36.769531 8.515625 -37.25 11.046875 -37.25 C 14.148438 -37.25 16.550781 -36.375 18.25 -34.625 C 19.945312 -32.882812 20.796875 -30.421875 20.796875 -27.234375 C 20.796875 -25.191406 20.515625 -23.34375 19.953125 -21.6875 C 19.398438 -20.03125 18.710938 -18.582031 17.890625 -17.34375 C 17.066406 -16.113281 15.976562 -14.660156 14.625 -12.984375 C 13.644531 -11.804688 12.832031 -10.753906 12.1875 -9.828125 C 11.539062 -8.910156 10.957031 -7.960938 10.4375 -6.984375 L 20.546875 -6.984375 L 20.546875 0 L 1.296875 0 Z M 1.296875 -1.765625 "/></g></g></g><g fill="#000000" fill-opacity="1"><g transform="translate(1026.709126, 1326.171395)"><g><path d="M 10.65625 0.34375 C 7.519531 0.34375 5.101562 -0.539062 3.40625 -2.3125 C 1.707031 -4.082031 0.859375 -6.601562 0.859375 -9.875 L 0.859375 -26.625 C 0.859375 -30.132812 1.675781 -32.8125 3.3125 -34.65625 C 4.957031 -36.5 7.40625 -37.421875 10.65625 -37.421875 C 13.9375 -37.421875 16.394531 -36.5 18.03125 -34.65625 C 19.675781 -32.8125 20.5 -30.132812 20.5 -26.625 L 20.5 -9.875 C 20.5 -6.570312 19.648438 -4.039062 17.953125 -2.28125 C 16.253906 -0.53125 13.820312 0.34375 10.65625 0.34375 Z M 10.65625 -6.46875 C 11.207031 -6.46875 11.65625 -6.71875 12 -7.21875 C 12.34375 -7.726562 12.515625 -8.328125 12.515625 -9.015625 L 12.515625 -27.3125 C 12.515625 -28.382812 12.390625 -29.195312 12.140625 -29.75 C 11.898438 -30.3125 11.40625 -30.59375 10.65625 -30.59375 C 9.90625 -30.59375 9.414062 -30.3125 9.1875 -29.75 C 8.957031 -29.195312 8.84375 -28.382812 8.84375 -27.3125 L 8.84375 -9.015625 C 8.84375 -8.328125 9.007812 -7.726562 9.34375 -7.21875 C 9.675781 -6.71875 10.113281 -6.46875 10.65625 -6.46875 Z M 10.65625 -6.46875 "/></g></g></g><g fill="#000000" fill-opacity="1"><g transform="translate(1048.025955, 1326.171395)"><g><path d="M 1.296875 -1.765625 C 1.296875 -3.460938 1.5625 -5.03125 2.09375 -6.46875 C 2.625 -7.90625 3.273438 -9.195312 4.046875 -10.34375 C 4.828125 -11.5 5.851562 -12.859375 7.125 -14.421875 C 8.414062 -16.023438 9.441406 -17.390625 10.203125 -18.515625 C 10.960938 -19.640625 11.609375 -20.925781 12.140625 -22.375 C 12.679688 -23.832031 12.953125 -25.410156 12.953125 -27.109375 C 12.953125 -28.109375 12.804688 -28.890625 12.515625 -29.453125 C 12.222656 -30.015625 11.707031 -30.296875 10.96875 -30.296875 C 9.726562 -30.296875 9.109375 -29.1875 9.109375 -26.96875 L 9.109375 -22.4375 L 1.296875 -22.4375 L 1.203125 -24.734375 C 1.203125 -27.546875 1.488281 -29.859375 2.0625 -31.671875 C 2.644531 -33.484375 3.65625 -34.863281 5.09375 -35.8125 C 6.53125 -36.769531 8.515625 -37.25 11.046875 -37.25 C 14.148438 -37.25 16.550781 -36.375 18.25 -34.625 C 19.945312 -32.882812 20.796875 -30.421875 20.796875 -27.234375 C 20.796875 -25.191406 20.515625 -23.34375 19.953125 -21.6875 C 19.398438 -20.03125 18.710938 -18.582031 17.890625 -17.34375 C 17.066406 -16.113281 15.976562 -14.660156 14.625 -12.984375 C 13.644531 -11.804688 12.832031 -10.753906 12.1875 -9.828125 C 11.539062 -8.910156 10.957031 -7.960938 10.4375 -6.984375 L 20.546875 -6.984375 L 20.546875 0 L 1.296875 0 Z M 1.296875 -1.765625 "/></g></g></g><g fill="#000000" fill-opacity="1"><g transform="translate(1069.342783, 1326.171395)"><g><path d="M 5.09375 -28.5625 C 4.601562 -27.957031 3.914062 -27.46875 3.03125 -27.09375 C 2.15625 -26.726562 1.316406 -26.546875 0.515625 -26.546875 L 0.515625 -32.453125 C 1.785156 -32.648438 3.046875 -33.148438 4.296875 -33.953125 C 5.546875 -34.765625 6.441406 -35.816406 6.984375 -37.109375 L 12.953125 -37.109375 L 12.953125 0 L 5.09375 0 Z M 5.09375 -28.5625 "/></g></g></g><g fill="#000000" fill-opacity="1"><g transform="translate(1319.067586, 1326.171395)"><g><path d="M 1.296875 -1.765625 C 1.296875 -3.460938 1.5625 -5.03125 2.09375 -6.46875 C 2.625 -7.90625 3.273438 -9.195312 4.046875 -10.34375 C 4.828125 -11.5 5.851562 -12.859375 7.125 -14.421875 C 8.414062 -16.023438 9.441406 -17.390625 10.203125 -18.515625 C 10.960938 -19.640625 11.609375 -20.925781 12.140625 -22.375 C 12.679688 -23.832031 12.953125 -25.410156 12.953125 -27.109375 C 12.953125 -28.109375 12.804688 -28.890625 12.515625 -29.453125 C 12.222656 -30.015625 11.707031 -30.296875 10.96875 -30.296875 C 9.726562 -30.296875 9.109375 -29.1875 9.109375 -26.96875 L 9.109375 -22.4375 L 1.296875 -22.4375 L 1.203125 -24.734375 C 1.203125 -27.546875 1.488281 -29.859375 2.0625 -31.671875 C 2.644531 -33.484375 3.65625 -34.863281 5.09375 -35.8125 C 6.53125 -36.769531 8.515625 -37.25 11.046875 -37.25 C 14.148438 -37.25 16.550781 -36.375 18.25 -34.625 C 19.945312 -32.882812 20.796875 -30.421875 20.796875 -27.234375 C 20.796875 -25.191406 20.515625 -23.34375 19.953125 -21.6875 C 19.398438 -20.03125 18.710938 -18.582031 17.890625 -17.34375 C 17.066406 -16.113281 15.976562 -14.660156 14.625 -12.984375 C 13.644531 -11.804688 12.832031 -10.753906 12.1875 -9.828125 C 11.539062 -8.910156 10.957031 -7.960938 10.4375 -6.984375 L 20.546875 -6.984375 L 20.546875 0 L 1.296875 0 Z M 1.296875 -1.765625 "/></g></g></g><g fill="#000000" fill-opacity="1"><g transform="translate(1340.384414, 1326.171395)"><g><path d="M 10.65625 0.34375 C 7.519531 0.34375 5.101562 -0.539062 3.40625 -2.3125 C 1.707031 -4.082031 0.859375 -6.601562 0.859375 -9.875 L 0.859375 -26.625 C 0.859375 -30.132812 1.675781 -32.8125 3.3125 -34.65625 C 4.957031 -36.5 7.40625 -37.421875 10.65625 -37.421875 C 13.9375 -37.421875 16.394531 -36.5 18.03125 -34.65625 C 19.675781 -32.8125 20.5 -30.132812 20.5 -26.625 L 20.5 -9.875 C 20.5 -6.570312 19.648438 -4.039062 17.953125 -2.28125 C 16.253906 -0.53125 13.820312 0.34375 10.65625 0.34375 Z M 10.65625 -6.46875 C 11.207031 -6.46875 11.65625 -6.71875 12 -7.21875 C 12.34375 -7.726562 12.515625 -8.328125 12.515625 -9.015625 L 12.515625 -27.3125 C 12.515625 -28.382812 12.390625 -29.195312 12.140625 -29.75 C 11.898438 -30.3125 11.40625 -30.59375 10.65625 -30.59375 C 9.90625 -30.59375 9.414062 -30.3125 9.1875 -29.75 C 8.957031 -29.195312 8.84375 -28.382812 8.84375 -27.3125 L 8.84375 -9.015625 C 8.84375 -8.328125 9.007812 -7.726562 9.34375 -7.21875 C 9.675781 -6.71875 10.113281 -6.46875 10.65625 -6.46875 Z M 10.65625 -6.46875 "/></g></g></g><g fill="#000000" fill-opacity="1"><g transform="translate(1361.701243, 1326.171395)"><g><path d="M 1.296875 -1.765625 C 1.296875 -3.460938 1.5625 -5.03125 2.09375 -6.46875 C 2.625 -7.90625 3.273438 -9.195312 4.046875 -10.34375 C 4.828125 -11.5 5.851562 -12.859375 7.125 -14.421875 C 8.414062 -16.023438 9.441406 -17.390625 10.203125 -18.515625 C 10.960938 -19.640625 11.609375 -20.925781 12.140625 -22.375 C 12.679688 -23.832031 12.953125 -25.410156 12.953125 -27.109375 C 12.953125 -28.109375 12.804688 -28.890625 12.515625 -29.453125 C 12.222656 -30.015625 11.707031 -30.296875 10.96875 -30.296875 C 9.726562 -30.296875 9.109375 -29.1875 9.109375 -26.96875 L 9.109375 -22.4375 L 1.296875 -22.4375 L 1.203125 -24.734375 C 1.203125 -27.546875 1.488281 -29.859375 2.0625 -31.671875 C 2.644531 -33.484375 3.65625 -34.863281 5.09375 -35.8125 C 6.53125 -36.769531 8.515625 -37.25 11.046875 -37.25 C 14.148438 -37.25 16.550781 -36.375 18.25 -34.625 C 19.945312 -32.882812 20.796875 -30.421875 20.796875 -27.234375 C 20.796875 -25.191406 20.515625 -23.34375 19.953125 -21.6875 C 19.398438 -20.03125 18.710938 -18.582031 17.890625 -17.34375 C 17.066406 -16.113281 15.976562 -14.660156 14.625 -12.984375 C 13.644531 -11.804688 12.832031 -10.753906 12.1875 -9.828125 C 11.539062 -8.910156 10.957031 -7.960938 10.4375 -6.984375 L 20.546875 -6.984375 L 20.546875 0 L 1.296875 0 Z M 1.296875 -1.765625 "/></g></g></g><g fill="#000000" fill-opacity="1"><g transform="translate(1383.018072, 1326.171395)"><g><path d="M 1.296875 -1.765625 C 1.296875 -3.460938 1.5625 -5.03125 2.09375 -6.46875 C 2.625 -7.90625 3.273438 -9.195312 4.046875 -10.34375 C 4.828125 -11.5 5.851562 -12.859375 7.125 -14.421875 C 8.414062 -16.023438 9.441406 -17.390625 10.203125 -18.515625 C 10.960938 -19.640625 11.609375 -20.925781 12.140625 -22.375 C 12.679688 -23.832031 12.953125 -25.410156 12.953125 -27.109375 C 12.953125 -28.109375 12.804688 -28.890625 12.515625 -29.453125 C 12.222656 -30.015625 11.707031 -30.296875 10.96875 -30.296875 C 9.726562 -30.296875 9.109375 -29.1875 9.109375 -26.96875 L 9.109375 -22.4375 L 1.296875 -22.4375 L 1.203125 -24.734375 C 1.203125 -27.546875 1.488281 -29.859375 2.0625 -31.671875 C 2.644531 -33.484375 3.65625 -34.863281 5.09375 -35.8125 C 6.53125 -36.769531 8.515625 -37.25 11.046875 -37.25 C 14.148438 -37.25 16.550781 -36.375 18.25 -34.625 C 19.945312 -32.882812 20.796875 -30.421875 20.796875 -27.234375 C 20.796875 -25.191406 20.515625 -23.34375 19.953125 -21.6875 C 19.398438 -20.03125 18.710938 -18.582031 17.890625 -17.34375 C 17.066406 -16.113281 15.976562 -14.660156 14.625 -12.984375 C 13.644531 -11.804688 12.832031 -10.753906 12.1875 -9.828125 C 11.539062 -8.910156 10.957031 -7.960938 10.4375 -6.984375 L 20.546875 -6.984375 L 20.546875 0 L 1.296875 0 Z M 1.296875 -1.765625 "/></g></g></g><g fill="#000000" fill-opacity="1"><g transform="translate(67.58948, 186.710959)"><g><path d="M 5.09375 -28.5625 C 4.601562 -27.957031 3.914062 -27.46875 3.03125 -27.09375 C 2.15625 -26.726562 1.316406 -26.546875 0.515625 -26.546875 L 0.515625 -32.453125 C 1.785156 -32.648438 3.046875 -33.148438 4.296875 -33.953125 C 5.546875 -34.765625 6.441406 -35.816406 6.984375 -37.109375 L 12.953125 -37.109375 L 12.953125 0 L 5.09375 0 Z M 5.09375 -28.5625 "/></g></g></g><g fill="#000000" fill-opacity="1"><g transform="translate(81.872615, 186.710959)"><g/></g></g><g fill="#000000" fill-opacity="1"><g transform="translate(86.92133, 186.710959)"><g><path d="M 10.65625 0.515625 C 7.695312 0.515625 5.335938 -0.207031 3.578125 -1.65625 C 1.828125 -3.113281 0.953125 -5.265625 0.953125 -8.109375 L 0.953125 -13.59375 L 8.671875 -13.59375 L 8.671875 -10.4375 C 8.671875 -9.175781 8.800781 -8.1875 9.0625 -7.46875 C 9.320312 -6.75 9.851562 -6.390625 10.65625 -6.390625 C 11.40625 -6.390625 11.914062 -6.632812 12.1875 -7.125 C 12.46875 -7.613281 12.609375 -8.332031 12.609375 -9.28125 L 12.609375 -16.578125 C 12.609375 -17.753906 12.484375 -18.691406 12.234375 -19.390625 C 11.992188 -20.097656 11.484375 -20.453125 10.703125 -20.453125 C 9.296875 -20.453125 8.59375 -19.429688 8.59375 -17.390625 L 1.8125 -17.390625 L 1.8125 -37.109375 L 19.46875 -37.109375 L 19.46875 -30.171875 L 8.84375 -30.171875 L 8.84375 -24.9375 C 9.21875 -25.425781 9.722656 -25.828125 10.359375 -26.140625 C 10.992188 -26.460938 11.710938 -26.625 12.515625 -26.625 C 15.617188 -26.625 17.738281 -25.53125 18.875 -23.34375 C 20.007812 -21.15625 20.578125 -18.0625 20.578125 -14.0625 C 20.578125 -10.757812 20.335938 -8.078125 19.859375 -6.015625 C 19.390625 -3.960938 18.4375 -2.359375 17 -1.203125 C 15.5625 -0.0546875 13.445312 0.515625 10.65625 0.515625 Z M 10.65625 0.515625 "/></g></g></g><g fill="#000000" fill-opacity="1"><g transform="translate(108.238158, 186.710959)"><g><path d="M 10.65625 0.34375 C 7.519531 0.34375 5.101562 -0.539062 3.40625 -2.3125 C 1.707031 -4.082031 0.859375 -6.601562 0.859375 -9.875 L 0.859375 -26.625 C 0.859375 -30.132812 1.675781 -32.8125 3.3125 -34.65625 C 4.957031 -36.5 7.40625 -37.421875 10.65625 -37.421875 C 13.9375 -37.421875 16.394531 -36.5 18.03125 -34.65625 C 19.675781 -32.8125 20.5 -30.132812 20.5 -26.625 L 20.5 -9.875 C 20.5 -6.570312 19.648438 -4.039062 17.953125 -2.28125 C 16.253906 -0.53125 13.820312 0.34375 10.65625 0.34375 Z M 10.65625 -6.46875 C 11.207031 -6.46875 11.65625 -6.71875 12 -7.21875 C 12.34375 -7.726562 12.515625 -8.328125 12.515625 -9.015625 L 12.515625 -27.3125 C 12.515625 -28.382812 12.390625 -29.195312 12.140625 -29.75 C 11.898438 -30.3125 11.40625 -30.59375 10.65625 -30.59375 C 9.90625 -30.59375 9.414062 -30.3125 9.1875 -29.75 C 8.957031 -29.195312 8.84375 -28.382812 8.84375 -27.3125 L 8.84375 -9.015625 C 8.84375 -8.328125 9.007812 -7.726562 9.34375 -7.21875 C 9.675781 -6.71875 10.113281 -6.46875 10.65625 -6.46875 Z M 10.65625 -6.46875 "/></g></g></g><g fill="#000000" fill-opacity="1"><g transform="translate(129.554987, 186.710959)"><g><path d="M 10.65625 0.34375 C 7.519531 0.34375 5.101562 -0.539062 3.40625 -2.3125 C 1.707031 -4.082031 0.859375 -6.601562 0.859375 -9.875 L 0.859375 -26.625 C 0.859375 -30.132812 1.675781 -32.8125 3.3125 -34.65625 C 4.957031 -36.5 7.40625 -37.421875 10.65625 -37.421875 C 13.9375 -37.421875 16.394531 -36.5 18.03125 -34.65625 C 19.675781 -32.8125 20.5 -30.132812 20.5 -26.625 L 20.5 -9.875 C 20.5 -6.570312 19.648438 -4.039062 17.953125 -2.28125 C 16.253906 -0.53125 13.820312 0.34375 10.65625 0.34375 Z M 10.65625 -6.46875 C 11.207031 -6.46875 11.65625 -6.71875 12 -7.21875 C 12.34375 -7.726562 12.515625 -8.328125 12.515625 -9.015625 L 12.515625 -27.3125 C 12.515625 -28.382812 12.390625 -29.195312 12.140625 -29.75 C 11.898438 -30.3125 11.40625 -30.59375 10.65625 -30.59375 C 9.90625 -30.59375 9.414062 -30.3125 9.1875 -29.75 C 8.957031 -29.195312 8.84375 -28.382812 8.84375 -27.3125 L 8.84375 -9.015625 C 8.84375 -8.328125 9.007812 -7.726562 9.34375 -7.21875 C 9.675781 -6.71875 10.113281 -6.46875 10.65625 -6.46875 Z M 10.65625 -6.46875 "/></g></g></g><g fill="#000000" fill-opacity="1"><g transform="translate(150.871816, 186.710959)"><g/></g></g><g fill="#000000" fill-opacity="1"><g transform="translate(155.92053, 186.710959)"><g><path d="M 10.65625 0.34375 C 7.519531 0.34375 5.101562 -0.539062 3.40625 -2.3125 C 1.707031 -4.082031 0.859375 -6.601562 0.859375 -9.875 L 0.859375 -26.625 C 0.859375 -30.132812 1.675781 -32.8125 3.3125 -34.65625 C 4.957031 -36.5 7.40625 -37.421875 10.65625 -37.421875 C 13.9375 -37.421875 16.394531 -36.5 18.03125 -34.65625 C 19.675781 -32.8125 20.5 -30.132812 20.5 -26.625 L 20.5 -9.875 C 20.5 -6.570312 19.648438 -4.039062 17.953125 -2.28125 C 16.253906 -0.53125 13.820312 0.34375 10.65625 0.34375 Z M 10.65625 -6.46875 C 11.207031 -6.46875 11.65625 -6.71875 12 -7.21875 C 12.34375 -7.726562 12.515625 -8.328125 12.515625 -9.015625 L 12.515625 -27.3125 C 12.515625 -28.382812 12.390625 -29.195312 12.140625 -29.75 C 11.898438 -30.3125 11.40625 -30.59375 10.65625 -30.59375 C 9.90625 -30.59375 9.414062 -30.3125 9.1875 -29.75 C 8.957031 -29.195312 8.84375 -28.382812 8.84375 -27.3125 L 8.84375 -9.015625 C 8.84375 -8.328125 9.007812 -7.726562 9.34375 -7.21875 C 9.675781 -6.71875 10.113281 -6.46875 10.65625 -6.46875 Z M 10.65625 -6.46875 "/></g></g></g><g fill="#000000" fill-opacity="1"><g transform="translate(177.237359, 186.710959)"><g><path d="M 10.65625 0.34375 C 7.519531 0.34375 5.101562 -0.539062 3.40625 -2.3125 C 1.707031 -4.082031 0.859375 -6.601562 0.859375 -9.875 L 0.859375 -26.625 C 0.859375 -30.132812 1.675781 -32.8125 3.3125 -34.65625 C 4.957031 -36.5 7.40625 -37.421875 10.65625 -37.421875 C 13.9375 -37.421875 16.394531 -36.5 18.03125 -34.65625 C 19.675781 -32.8125 20.5 -30.132812 20.5 -26.625 L 20.5 -9.875 C 20.5 -6.570312 19.648438 -4.039062 17.953125 -2.28125 C 16.253906 -0.53125 13.820312 0.34375 10.65625 0.34375 Z M 10.65625 -6.46875 C 11.207031 -6.46875 11.65625 -6.71875 12 -7.21875 C 12.34375 -7.726562 12.515625 -8.328125 12.515625 -9.015625 L 12.515625 -27.3125 C 12.515625 -28.382812 12.390625 -29.195312 12.140625 -29.75 C 11.898438 -30.3125 11.40625 -30.59375 10.65625 -30.59375 C 9.90625 -30.59375 9.414062 -30.3125 9.1875 -29.75 C 8.957031 -29.195312 8.84375 -28.382812 8.84375 -27.3125 L 8.84375 -9.015625 C 8.84375 -8.328125 9.007812 -7.726562 9.34375 -7.21875 C 9.675781 -6.71875 10.113281 -6.46875 10.65625 -6.46875 Z M 10.65625 -6.46875 "/></g></g></g><g fill="#000000" fill-opacity="1"><g transform="translate(198.554187, 186.710959)"><g><path d="M 10.65625 0.34375 C 7.519531 0.34375 5.101562 -0.539062 3.40625 -2.3125 C 1.707031 -4.082031 0.859375 -6.601562 0.859375 -9.875 L 0.859375 -26.625 C 0.859375 -30.132812 1.675781 -32.8125 3.3125 -34.65625 C 4.957031 -36.5 7.40625 -37.421875 10.65625 -37.421875 C 13.9375 -37.421875 16.394531 -36.5 18.03125 -34.65625 C 19.675781 -32.8125 20.5 -30.132812 20.5 -26.625 L 20.5 -9.875 C 20.5 -6.570312 19.648438 -4.039062 17.953125 -2.28125 C 16.253906 -0.53125 13.820312 0.34375 10.65625 0.34375 Z M 10.65625 -6.46875 C 11.207031 -6.46875 11.65625 -6.71875 12 -7.21875 C 12.34375 -7.726562 12.515625 -8.328125 12.515625 -9.015625 L 12.515625 -27.3125 C 12.515625 -28.382812 12.390625 -29.195312 12.140625 -29.75 C 11.898438 -30.3125 11.40625 -30.59375 10.65625 -30.59375 C 9.90625 -30.59375 9.414062 -30.3125 9.1875 -29.75 C 8.957031 -29.195312 8.84375 -28.382812 8.84375 -27.3125 L 8.84375 -9.015625 C 8.84375 -8.328125 9.007812 -7.726562 9.34375 -7.21875 C 9.675781 -6.71875 10.113281 -6.46875 10.65625 -6.46875 Z M 10.65625 -6.46875 "/></g></g></g><g fill="#000000" fill-opacity="1"><g transform="translate(219.881564, 186.710959)"><g/></g></g><g fill="#000000" fill-opacity="1"><g transform="translate(67.58948, 550.789782)"><g><path d="M 5.09375 -28.5625 C 4.601562 -27.957031 3.914062 -27.46875 3.03125 -27.09375 C 2.15625 -26.726562 1.316406 -26.546875 0.515625 -26.546875 L 0.515625 -32.453125 C 1.785156 -32.648438 3.046875 -33.148438 4.296875 -33.953125 C 5.546875 -34.765625 6.441406 -35.816406 6.984375 -37.109375 L 12.953125 -37.109375 L 12.953125 0 L 5.09375 0 Z M 5.09375 -28.5625 "/></g></g></g><g fill="#000000" fill-opacity="1"><g transform="translate(81.872615, 550.789782)"><g/></g></g><g fill="#000000" fill-opacity="1"><g transform="translate(86.92133, 550.789782)"><g><path d="M 10.65625 0.34375 C 7.519531 0.34375 5.101562 -0.539062 3.40625 -2.3125 C 1.707031 -4.082031 0.859375 -6.601562 0.859375 -9.875 L 0.859375 -26.625 C 0.859375 -30.132812 1.675781 -32.8125 3.3125 -34.65625 C 4.957031 -36.5 7.40625 -37.421875 10.65625 -37.421875 C 13.9375 -37.421875 16.394531 -36.5 18.03125 -34.65625 C 19.675781 -32.8125 20.5 -30.132812 20.5 -26.625 L 20.5 -9.875 C 20.5 -6.570312 19.648438 -4.039062 17.953125 -2.28125 C 16.253906 -0.53125 13.820312 0.34375 10.65625 0.34375 Z M 10.65625 -6.46875 C 11.207031 -6.46875 11.65625 -6.71875 12 -7.21875 C 12.34375 -7.726562 12.515625 -8.328125 12.515625 -9.015625 L 12.515625 -27.3125 C 12.515625 -28.382812 12.390625 -29.195312 12.140625 -29.75 C 11.898438 -30.3125 11.40625 -30.59375 10.65625 -30.59375 C 9.90625 -30.59375 9.414062 -30.3125 9.1875 -29.75 C 8.957031 -29.195312 8.84375 -28.382812 8.84375 -27.3125 L 8.84375 -9.015625 C 8.84375 -8.328125 9.007812 -7.726562 9.34375 -7.21875 C 9.675781 -6.71875 10.113281 -6.46875 10.65625 -6.46875 Z M 10.65625 -6.46875 "/></g></g></g><g fill="#000000" fill-opacity="1"><g transform="translate(108.238158, 550.789782)"><g><path d="M 10.65625 0.34375 C 7.519531 0.34375 5.101562 -0.539062 3.40625 -2.3125 C 1.707031 -4.082031 0.859375 -6.601562 0.859375 -9.875 L 0.859375 -26.625 C 0.859375 -30.132812 1.675781 -32.8125 3.3125 -34.65625 C 4.957031 -36.5 7.40625 -37.421875 10.65625 -37.421875 C 13.9375 -37.421875 16.394531 -36.5 18.03125 -34.65625 C 19.675781 -32.8125 20.5 -30.132812 20.5 -26.625 L 20.5 -9.875 C 20.5 -6.570312 19.648438 -4.039062 17.953125 -2.28125 C 16.253906 -0.53125 13.820312 0.34375 10.65625 0.34375 Z M 10.65625 -6.46875 C 11.207031 -6.46875 11.65625 -6.71875 12 -7.21875 C 12.34375 -7.726562 12.515625 -8.328125 12.515625 -9.015625 L 12.515625 -27.3125 C 12.515625 -28.382812 12.390625 -29.195312 12.140625 -29.75 C 11.898438 -30.3125 11.40625 -30.59375 10.65625 -30.59375 C 9.90625 -30.59375 9.414062 -30.3125 9.1875 -29.75 C 8.957031 -29.195312 8.84375 -28.382812 8.84375 -27.3125 L 8.84375 -9.015625 C 8.84375 -8.328125 9.007812 -7.726562 9.34375 -7.21875 C 9.675781 -6.71875 10.113281 -6.46875 10.65625 -6.46875 Z M 10.65625 -6.46875 "/></g></g></g><g fill="#000000" fill-opacity="1"><g transform="translate(129.554987, 550.789782)"><g><path d="M 10.65625 0.34375 C 7.519531 0.34375 5.101562 -0.539062 3.40625 -2.3125 C 1.707031 -4.082031 0.859375 -6.601562 0.859375 -9.875 L 0.859375 -26.625 C 0.859375 -30.132812 1.675781 -32.8125 3.3125 -34.65625 C 4.957031 -36.5 7.40625 -37.421875 10.65625 -37.421875 C 13.9375 -37.421875 16.394531 -36.5 18.03125 -34.65625 C 19.675781 -32.8125 20.5 -30.132812 20.5 -26.625 L 20.5 -9.875 C 20.5 -6.570312 19.648438 -4.039062 17.953125 -2.28125 C 16.253906 -0.53125 13.820312 0.34375 10.65625 0.34375 Z M 10.65625 -6.46875 C 11.207031 -6.46875 11.65625 -6.71875 12 -7.21875 C 12.34375 -7.726562 12.515625 -8.328125 12.515625 -9.015625 L 12.515625 -27.3125 C 12.515625 -28.382812 12.390625 -29.195312 12.140625 -29.75 C 11.898438 -30.3125 11.40625 -30.59375 10.65625 -30.59375 C 9.90625 -30.59375 9.414062 -30.3125 9.1875 -29.75 C 8.957031 -29.195312 8.84375 -28.382812 8.84375 -27.3125 L 8.84375 -9.015625 C 8.84375 -8.328125 9.007812 -7.726562 9.34375 -7.21875 C 9.675781 -6.71875 10.113281 -6.46875 10.65625 -6.46875 Z M 10.65625 -6.46875 "/></g></g></g><g fill="#000000" fill-opacity="1"><g transform="translate(150.871816, 550.789782)"><g/></g></g><g fill="#000000" fill-opacity="1"><g transform="translate(155.92053, 550.789782)"><g><path d="M 10.65625 0.34375 C 7.519531 0.34375 5.101562 -0.539062 3.40625 -2.3125 C 1.707031 -4.082031 0.859375 -6.601562 0.859375 -9.875 L 0.859375 -26.625 C 0.859375 -30.132812 1.675781 -32.8125 3.3125 -34.65625 C 4.957031 -36.5 7.40625 -37.421875 10.65625 -37.421875 C 13.9375 -37.421875 16.394531 -36.5 18.03125 -34.65625 C 19.675781 -32.8125 20.5 -30.132812 20.5 -26.625 L 20.5 -9.875 C 20.5 -6.570312 19.648438 -4.039062 17.953125 -2.28125 C 16.253906 -0.53125 13.820312 0.34375 10.65625 0.34375 Z M 10.65625 -6.46875 C 11.207031 -6.46875 11.65625 -6.71875 12 -7.21875 C 12.34375 -7.726562 12.515625 -8.328125 12.515625 -9.015625 L 12.515625 -27.3125 C 12.515625 -28.382812 12.390625 -29.195312 12.140625 -29.75 C 11.898438 -30.3125 11.40625 -30.59375 10.65625 -30.59375 C 9.90625 -30.59375 9.414062 -30.3125 9.1875 -29.75 C 8.957031 -29.195312 8.84375 -28.382812 8.84375 -27.3125 L 8.84375 -9.015625 C 8.84375 -8.328125 9.007812 -7.726562 9.34375 -7.21875 C 9.675781 -6.71875 10.113281 -6.46875 10.65625 -6.46875 Z M 10.65625 -6.46875 "/></g></g></g><g fill="#000000" fill-opacity="1"><g transform="translate(177.237359, 550.789782)"><g><path d="M 10.65625 0.34375 C 7.519531 0.34375 5.101562 -0.539062 3.40625 -2.3125 C 1.707031 -4.082031 0.859375 -6.601562 0.859375 -9.875 L 0.859375 -26.625 C 0.859375 -30.132812 1.675781 -32.8125 3.3125 -34.65625 C 4.957031 -36.5 7.40625 -37.421875 10.65625 -37.421875 C 13.9375 -37.421875 16.394531 -36.5 18.03125 -34.65625 C 19.675781 -32.8125 20.5 -30.132812 20.5 -26.625 L 20.5 -9.875 C 20.5 -6.570312 19.648438 -4.039062 17.953125 -2.28125 C 16.253906 -0.53125 13.820312 0.34375 10.65625 0.34375 Z M 10.65625 -6.46875 C 11.207031 -6.46875 11.65625 -6.71875 12 -7.21875 C 12.34375 -7.726562 12.515625 -8.328125 12.515625 -9.015625 L 12.515625 -27.3125 C 12.515625 -28.382812 12.390625 -29.195312 12.140625 -29.75 C 11.898438 -30.3125 11.40625 -30.59375 10.65625 -30.59375 C 9.90625 -30.59375 9.414062 -30.3125 9.1875 -29.75 C 8.957031 -29.195312 8.84375 -28.382812 8.84375 -27.3125 L 8.84375 -9.015625 C 8.84375 -8.328125 9.007812 -7.726562 9.34375 -7.21875 C 9.675781 -6.71875 10.113281 -6.46875 10.65625 -6.46875 Z M 10.65625 -6.46875 "/></g></g></g><g fill="#000000" fill-opacity="1"><g transform="translate(198.554187, 550.789782)"><g><path d="M 10.65625 0.34375 C 7.519531 0.34375 5.101562 -0.539062 3.40625 -2.3125 C 1.707031 -4.082031 0.859375 -6.601562 0.859375 -9.875 L 0.859375 -26.625 C 0.859375 -30.132812 1.675781 -32.8125 3.3125 -34.65625 C 4.957031 -36.5 7.40625 -37.421875 10.65625 -37.421875 C 13.9375 -37.421875 16.394531 -36.5 18.03125 -34.65625 C 19.675781 -32.8125 20.5 -30.132812 20.5 -26.625 L 20.5 -9.875 C 20.5 -6.570312 19.648438 -4.039062 17.953125 -2.28125 C 16.253906 -0.53125 13.820312 0.34375 10.65625 0.34375 Z M 10.65625 -6.46875 C 11.207031 -6.46875 11.65625 -6.71875 12 -7.21875 C 12.34375 -7.726562 12.515625 -8.328125 12.515625 -9.015625 L 12.515625 -27.3125 C 12.515625 -28.382812 12.390625 -29.195312 12.140625 -29.75 C 11.898438 -30.3125 11.40625 -30.59375 10.65625 -30.59375 C 9.90625 -30.59375 9.414062 -30.3125 9.1875 -29.75 C 8.957031 -29.195312 8.84375 -28.382812 8.84375 -27.3125 L 8.84375 -9.015625 C 8.84375 -8.328125 9.007812 -7.726562 9.34375 -7.21875 C 9.675781 -6.71875 10.113281 -6.46875 10.65625 -6.46875 Z M 10.65625 -6.46875 "/></g></g></g><g fill="#000000" fill-opacity="1"><g transform="translate(219.881564, 550.789782)"><g/></g></g><g fill="#000000" fill-opacity="1"><g transform="translate(86.929598, 914.868575)"><g><path d="M 10.65625 0.515625 C 7.695312 0.515625 5.335938 -0.207031 3.578125 -1.65625 C 1.828125 -3.113281 0.953125 -5.265625 0.953125 -8.109375 L 0.953125 -13.59375 L 8.671875 -13.59375 L 8.671875 -10.4375 C 8.671875 -9.175781 8.800781 -8.1875 9.0625 -7.46875 C 9.320312 -6.75 9.851562 -6.390625 10.65625 -6.390625 C 11.40625 -6.390625 11.914062 -6.632812 12.1875 -7.125 C 12.46875 -7.613281 12.609375 -8.332031 12.609375 -9.28125 L 12.609375 -16.578125 C 12.609375 -17.753906 12.484375 -18.691406 12.234375 -19.390625 C 11.992188 -20.097656 11.484375 -20.453125 10.703125 -20.453125 C 9.296875 -20.453125 8.59375 -19.429688 8.59375 -17.390625 L 1.8125 -17.390625 L 1.8125 -37.109375 L 19.46875 -37.109375 L 19.46875 -30.171875 L 8.84375 -30.171875 L 8.84375 -24.9375 C 9.21875 -25.425781 9.722656 -25.828125 10.359375 -26.140625 C 10.992188 -26.460938 11.710938 -26.625 12.515625 -26.625 C 15.617188 -26.625 17.738281 -25.53125 18.875 -23.34375 C 20.007812 -21.15625 20.578125 -18.0625 20.578125 -14.0625 C 20.578125 -10.757812 20.335938 -8.078125 19.859375 -6.015625 C 19.390625 -3.960938 18.4375 -2.359375 17 -1.203125 C 15.5625 -0.0546875 13.445312 0.515625 10.65625 0.515625 Z M 10.65625 0.515625 "/></g></g></g><g fill="#000000" fill-opacity="1"><g transform="translate(108.246427, 914.868575)"><g><path d="M 10.65625 0.34375 C 7.519531 0.34375 5.101562 -0.539062 3.40625 -2.3125 C 1.707031 -4.082031 0.859375 -6.601562 0.859375 -9.875 L 0.859375 -26.625 C 0.859375 -30.132812 1.675781 -32.8125 3.3125 -34.65625 C 4.957031 -36.5 7.40625 -37.421875 10.65625 -37.421875 C 13.9375 -37.421875 16.394531 -36.5 18.03125 -34.65625 C 19.675781 -32.8125 20.5 -30.132812 20.5 -26.625 L 20.5 -9.875 C 20.5 -6.570312 19.648438 -4.039062 17.953125 -2.28125 C 16.253906 -0.53125 13.820312 0.34375 10.65625 0.34375 Z M 10.65625 -6.46875 C 11.207031 -6.46875 11.65625 -6.71875 12 -7.21875 C 12.34375 -7.726562 12.515625 -8.328125 12.515625 -9.015625 L 12.515625 -27.3125 C 12.515625 -28.382812 12.390625 -29.195312 12.140625 -29.75 C 11.898438 -30.3125 11.40625 -30.59375 10.65625 -30.59375 C 9.90625 -30.59375 9.414062 -30.3125 9.1875 -29.75 C 8.957031 -29.195312 8.84375 -28.382812 8.84375 -27.3125 L 8.84375 -9.015625 C 8.84375 -8.328125 9.007812 -7.726562 9.34375 -7.21875 C 9.675781 -6.71875 10.113281 -6.46875 10.65625 -6.46875 Z M 10.65625 -6.46875 "/></g></g></g><g fill="#000000" fill-opacity="1"><g transform="translate(129.563256, 914.868575)"><g><path d="M 10.65625 0.34375 C 7.519531 0.34375 5.101562 -0.539062 3.40625 -2.3125 C 1.707031 -4.082031 0.859375 -6.601562 0.859375 -9.875 L 0.859375 -26.625 C 0.859375 -30.132812 1.675781 -32.8125 3.3125 -34.65625 C 4.957031 -36.5 7.40625 -37.421875 10.65625 -37.421875 C 13.9375 -37.421875 16.394531 -36.5 18.03125 -34.65625 C 19.675781 -32.8125 20.5 -30.132812 20.5 -26.625 L 20.5 -9.875 C 20.5 -6.570312 19.648438 -4.039062 17.953125 -2.28125 C 16.253906 -0.53125 13.820312 0.34375 10.65625 0.34375 Z M 10.65625 -6.46875 C 11.207031 -6.46875 11.65625 -6.71875 12 -7.21875 C 12.34375 -7.726562 12.515625 -8.328125 12.515625 -9.015625 L 12.515625 -27.3125 C 12.515625 -28.382812 12.390625 -29.195312 12.140625 -29.75 C 11.898438 -30.3125 11.40625 -30.59375 10.65625 -30.59375 C 9.90625 -30.59375 9.414062 -30.3125 9.1875 -29.75 C 8.957031 -29.195312 8.84375 -28.382812 8.84375 -27.3125 L 8.84375 -9.015625 C 8.84375 -8.328125 9.007812 -7.726562 9.34375 -7.21875 C 9.675781 -6.71875 10.113281 -6.46875 10.65625 -6.46875 Z M 10.65625 -6.46875 "/></g></g></g><g fill="#000000" fill-opacity="1"><g transform="translate(150.880084, 914.868575)"><g/></g></g><g fill="#000000" fill-opacity="1"><g transform="translate(155.928799, 914.868575)"><g><path d="M 10.65625 0.34375 C 7.519531 0.34375 5.101562 -0.539062 3.40625 -2.3125 C 1.707031 -4.082031 0.859375 -6.601562 0.859375 -9.875 L 0.859375 -26.625 C 0.859375 -30.132812 1.675781 -32.8125 3.3125 -34.65625 C 4.957031 -36.5 7.40625 -37.421875 10.65625 -37.421875 C 13.9375 -37.421875 16.394531 -36.5 18.03125 -34.65625 C 19.675781 -32.8125 20.5 -30.132812 20.5 -26.625 L 20.5 -9.875 C 20.5 -6.570312 19.648438 -4.039062 17.953125 -2.28125 C 16.253906 -0.53125 13.820312 0.34375 10.65625 0.34375 Z M 10.65625 -6.46875 C 11.207031 -6.46875 11.65625 -6.71875 12 -7.21875 C 12.34375 -7.726562 12.515625 -8.328125 12.515625 -9.015625 L 12.515625 -27.3125 C 12.515625 -28.382812 12.390625 -29.195312 12.140625 -29.75 C 11.898438 -30.3125 11.40625 -30.59375 10.65625 -30.59375 C 9.90625 -30.59375 9.414062 -30.3125 9.1875 -29.75 C 8.957031 -29.195312 8.84375 -28.382812 8.84375 -27.3125 L 8.84375 -9.015625 C 8.84375 -8.328125 9.007812 -7.726562 9.34375 -7.21875 C 9.675781 -6.71875 10.113281 -6.46875 10.65625 -6.46875 Z M 10.65625 -6.46875 "/></g></g></g><g fill="#000000" fill-opacity="1"><g transform="translate(177.245627, 914.868575)"><g><path d="M 10.65625 0.34375 C 7.519531 0.34375 5.101562 -0.539062 3.40625 -2.3125 C 1.707031 -4.082031 0.859375 -6.601562 0.859375 -9.875 L 0.859375 -26.625 C 0.859375 -30.132812 1.675781 -32.8125 3.3125 -34.65625 C 4.957031 -36.5 7.40625 -37.421875 10.65625 -37.421875 C 13.9375 -37.421875 16.394531 -36.5 18.03125 -34.65625 C 19.675781 -32.8125 20.5 -30.132812 20.5 -26.625 L 20.5 -9.875 C 20.5 -6.570312 19.648438 -4.039062 17.953125 -2.28125 C 16.253906 -0.53125 13.820312 0.34375 10.65625 0.34375 Z M 10.65625 -6.46875 C 11.207031 -6.46875 11.65625 -6.71875 12 -7.21875 C 12.34375 -7.726562 12.515625 -8.328125 12.515625 -9.015625 L 12.515625 -27.3125 C 12.515625 -28.382812 12.390625 -29.195312 12.140625 -29.75 C 11.898438 -30.3125 11.40625 -30.59375 10.65625 -30.59375 C 9.90625 -30.59375 9.414062 -30.3125 9.1875 -29.75 C 8.957031 -29.195312 8.84375 -28.382812 8.84375 -27.3125 L 8.84375 -9.015625 C 8.84375 -8.328125 9.007812 -7.726562 9.34375 -7.21875 C 9.675781 -6.71875 10.113281 -6.46875 10.65625 -6.46875 Z M 10.65625 -6.46875 "/></g></g></g><g fill="#000000" fill-opacity="1"><g transform="translate(198.562456, 914.868575)"><g><path d="M 10.65625 0.34375 C 7.519531 0.34375 5.101562 -0.539062 3.40625 -2.3125 C 1.707031 -4.082031 0.859375 -6.601562 0.859375 -9.875 L 0.859375 -26.625 C 0.859375 -30.132812 1.675781 -32.8125 3.3125 -34.65625 C 4.957031 -36.5 7.40625 -37.421875 10.65625 -37.421875 C 13.9375 -37.421875 16.394531 -36.5 18.03125 -34.65625 C 19.675781 -32.8125 20.5 -30.132812 20.5 -26.625 L 20.5 -9.875 C 20.5 -6.570312 19.648438 -4.039062 17.953125 -2.28125 C 16.253906 -0.53125 13.820312 0.34375 10.65625 0.34375 Z M 10.65625 -6.46875 C 11.207031 -6.46875 11.65625 -6.71875 12 -7.21875 C 12.34375 -7.726562 12.515625 -8.328125 12.515625 -9.015625 L 12.515625 -27.3125 C 12.515625 -28.382812 12.390625 -29.195312 12.140625 -29.75 C 11.898438 -30.3125 11.40625 -30.59375 10.65625 -30.59375 C 9.90625 -30.59375 9.414062 -30.3125 9.1875 -29.75 C 8.957031 -29.195312 8.84375 -28.382812 8.84375 -27.3125 L 8.84375 -9.015625 C 8.84375 -8.328125 9.007812 -7.726562 9.34375 -7.21875 C 9.675781 -6.71875 10.113281 -6.46875 10.65625 -6.46875 Z M 10.65625 -6.46875 "/></g></g></g><g fill="#000000" fill-opacity="1"><g transform="translate(219.879995, 914.868575)"><g/></g></g><g fill="#000000" fill-opacity="1"><g transform="translate(198.557521, 1278.947415)"><g><path d="M 10.65625 0.34375 C 7.519531 0.34375 5.101562 -0.539062 3.40625 -2.3125 C 1.707031 -4.082031 0.859375 -6.601562 0.859375 -9.875 L 0.859375 -26.625 C 0.859375 -30.132812 1.675781 -32.8125 3.3125 -34.65625 C 4.957031 -36.5 7.40625 -37.421875 10.65625 -37.421875 C 13.9375 -37.421875 16.394531 -36.5 18.03125 -34.65625 C 19.675781 -32.8125 20.5 -30.132812 20.5 -26.625 L 20.5 -9.875 C 20.5 -6.570312 19.648438 -4.039062 17.953125 -2.28125 C 16.253906 -0.53125 13.820312 0.34375 10.65625 0.34375 Z M 10.65625 -6.46875 C 11.207031 -6.46875 11.65625 -6.71875 12 -7.21875 C 12.34375 -7.726562 12.515625 -8.328125 12.515625 -9.015625 L 12.515625 -27.3125 C 12.515625 -28.382812 12.390625 -29.195312 12.140625 -29.75 C 11.898438 -30.3125 11.40625 -30.59375 10.65625 -30.59375 C 9.90625 -30.59375 9.414062 -30.3125 9.1875 -29.75 C 8.957031 -29.195312 8.84375 -28.382812 8.84375 -27.3125 L 8.84375 -9.015625 C 8.84375 -8.328125 9.007812 -7.726562 9.34375 -7.21875 C 9.675781 -6.71875 10.113281 -6.46875 10.65625 -6.46875 Z M 10.65625 -6.46875 "/></g></g></g><g fill="#000000" fill-opacity="1"><g transform="translate(219.878412, 1278.947415)"><g/></g></g><g clip-path="url(#da29f2d772)"><g clip-path="url(#50ce018837)"><path fill="#2d5d45" d="M 383.515625 307.21875 L 1388.683594 307.21875 L 1388.683594 1102.292969 L 383.515625 1102.292969 Z M 383.515625 307.21875 " fill-opacity="1" fill-rule="nonzero"/></g></g><g clip-path="url(#280ed7d904)"><g clip-path="url(#d6981d12c8)"><path fill="#2d5d45" d="M 383.515625 307.21875 L 1388.683594 307.21875 L 1388.683594 1102.292969 L 383.515625 1102.292969 Z M 383.515625 307.21875 " fill-opacity="1" fill-rule="nonzero"/></g></g></svg>