<svg xmlns="http://www.w3.org/2000/svg" width="1920" zoomAndPan="magnify" viewBox="0 0 1440 1439.999935" height="1920" preserveAspectRatio="xMidYMid meet" version="1.0"><defs><clipPath id="705653db40"><path d="M 510 1183.308594 L 719 1183.308594 L 719 1283.871094 L 510 1283.871094 Z M 510 1183.308594 " clip-rule="nonzero"/></clipPath></defs><path fill="#753a1a" d="M 644.871094 513.144531 C 644.972656 513.167969 655.6875 517.851562 667.871094 517.863281 C 675.558594 517.863281 683.941406 515.972656 690.378906 509.632812 C 696.832031 503.304688 701.128906 492.730469 701.117188 475.90625 C 701.117188 473.941406 701.0625 471.882812 700.941406 469.742188 L 698.113281 469.90625 C 698.234375 471.996094 698.289062 473.996094 698.289062 475.90625 C 698.289062 492.289062 694.136719 501.988281 688.402344 507.621094 C 682.660156 513.257812 675.125 515.023438 667.871094 515.035156 C 662.136719 515.035156 656.648438 513.917969 652.605469 512.78125 C 650.582031 512.21875 648.914062 511.65625 647.765625 511.234375 C 647.191406 511.023438 646.75 510.847656 646.453125 510.726562 C 646.144531 510.617188 646.011719 510.550781 646.011719 510.550781 L 644.871094 513.144531 " fill-opacity="1" fill-rule="nonzero"/><path fill="#211a15" d="M 384.738281 463.65625 C 384.738281 463.65625 288.445312 588.875 336.691406 608.339844 C 373.703125 623.273438 433.042969 593.050781 466.066406 514.835938 L 384.738281 463.65625 " fill-opacity="1" fill-rule="nonzero"/><path fill="#f0aa66" d="M 718.765625 951.199219 L 769.398438 1211.777344 L 602.558594 1211.777344 L 591.246094 859.738281 L 718.765625 951.199219 " fill-opacity="1" fill-rule="nonzero"/><path fill="#753a1a" d="M 641.105469 330.957031 C 663.429688 326.21875 720.5 327.222656 724.191406 374.726562 C 724.886719 383.707031 718.765625 400.453125 697.902344 399.371094 C 697.902344 399.371094 743.375 443.671875 701.25 469.828125 C 701.25 469.828125 699.40625 528.367188 650.496094 507.578125 C 650.496094 507.578125 494.53125 585.515625 419.34375 514.835938 C 373.804688 472.027344 396.414062 391.285156 418.695312 363.667969 C 483.289062 283.597656 641.105469 330.957031 641.105469 330.957031 " fill-opacity="1" fill-rule="nonzero"/><path fill="#f0aa66" d="M 426.039062 488.664062 L 371.398438 702.460938 L 523.316406 728.023438 L 557.589844 589.769531 L 426.039062 488.664062 " fill-opacity="1" fill-rule="nonzero"/><path fill="#2d5d45" d="M 388.78125 634.445312 L 293.957031 677.816406 L 104.601562 1213.160156 L 699.40625 1213.160156 L 614.386719 694.21875 L 543.363281 646.507812 L 388.78125 634.445312 " fill-opacity="1" fill-rule="nonzero"/><path fill="#f0aa66" d="M 565.410156 334.558594 C 621.632812 337.296875 677.746094 384.558594 658.195312 474.359375 C 652.914062 498.628906 640.6875 546.816406 636.378906 571.285156 C 632.878906 591.226562 623.289062 630.113281 584.6875 633.671875 C 568.78125 635.128906 556.476562 634.785156 520.886719 630.355469 L 426.039062 488.664062 C 426.039062 488.664062 450.117188 328.921875 565.410156 334.558594 " fill-opacity="1" fill-rule="nonzero"/><path fill="#211a15" d="M 616.597656 520.425781 L 607.261719 565.585938 C 607.109375 566.347656 607.59375 567.101562 608.355469 567.253906 C 609.117188 567.421875 609.871094 566.921875 610.035156 566.160156 L 619.367188 521 C 619.523438 520.238281 619.027344 519.488281 618.265625 519.332031 C 617.5 519.167969 616.75 519.664062 616.597656 520.425781 " fill-opacity="1" fill-rule="nonzero"/><path fill="#211a15" d="M 570.382812 521.488281 C 568.601562 526.238281 569.785156 531.0625 573.011719 532.28125 C 576.246094 533.484375 580.300781 530.613281 582.078125 525.871094 C 583.855469 521.121094 582.675781 516.292969 579.449219 515.078125 C 576.214844 513.875 572.148438 516.746094 570.382812 521.488281 " fill-opacity="1" fill-rule="nonzero"/><path fill="#211a15" d="M 625.578125 529.882812 C 623.796875 534.632812 624.980469 539.460938 628.214844 540.664062 C 631.441406 541.878906 635.507812 539.007812 637.273438 534.257812 C 639.050781 529.519531 637.871094 524.691406 634.644531 523.476562 C 631.410156 522.269531 627.355469 525.132812 625.578125 529.882812 " fill-opacity="1" fill-rule="nonzero"/><path fill="#211a15" d="M 547.007812 632.011719 L 496.023438 623.296875 C 495.25 623.164062 494.519531 623.683594 494.386719 624.457031 C 494.257812 625.21875 494.773438 625.960938 495.546875 626.082031 L 546.535156 634.796875 C 547.308594 634.929688 548.035156 634.410156 548.167969 633.636719 C 548.300781 632.875 547.78125 632.132812 547.007812 632.011719 " fill-opacity="1" fill-rule="nonzero"/><path fill="#211a15" d="M 550.976562 574.523438 C 550.996094 574.65625 551.648438 578.65625 554.71875 582.730469 C 557.769531 586.820312 563.402344 590.90625 572.789062 590.875 C 573.925781 590.875 575.121094 590.816406 576.367188 590.695312 C 577.140625 590.621094 577.714844 589.933594 577.636719 589.148438 C 577.5625 588.375 576.867188 587.800781 576.09375 587.878906 C 574.933594 587.992188 573.828125 588.046875 572.789062 588.046875 C 564.21875 588.023438 559.644531 584.519531 556.972656 581.03125 C 555.648438 579.273438 554.839844 577.507812 554.367188 576.191406 C 554.121094 575.527344 553.96875 574.988281 553.878906 574.613281 L 553.78125 574.191406 L 553.769531 574.09375 L 553.757812 574.070312 C 553.636719 573.308594 552.90625 572.777344 552.132812 572.898438 C 551.371094 573.03125 550.84375 573.761719 550.976562 574.523438 " fill-opacity="1" fill-rule="nonzero"/><path fill="#f0aa66" d="M 182.484375 1260.144531 L 310.691406 890.5625 L 142.699219 850.789062 C 142.699219 850.789062 0.566406 1135.113281 29.382812 1198.742188 L 182.484375 1260.144531 " fill-opacity="1" fill-rule="nonzero"/><path fill="#f0aa66" d="M 802.878906 1181.234375 C 802.878906 1181.234375 848.949219 1068.375 982.039062 1067.214844 C 1012.167969 1066.949219 1082.03125 1077.789062 1087.566406 1145.296875 C 1089.3125 1166.585938 1086.441406 1200.964844 1065 1192.964844 C 1065 1192.964844 1051.148438 1206.234375 1042.191406 1193.726562 C 1042.191406 1193.726562 1016.597656 1208.960938 1014.675781 1177.929688 C 1014.675781 1177.929688 1012.335938 1191.671875 1001.023438 1189.265625 C 990.386719 1187 986.523438 1182.082031 971.808594 1144.015625 C 971.808594 1144.015625 954.84375 1148.808594 946.847656 1157.449219 C 946.847656 1157.449219 988.445312 1175.6875 983.960938 1192.003906 C 983.960938 1192.003906 978.84375 1204.585938 914.859375 1199.097656 L 802.878906 1181.234375 " fill-opacity="1" fill-rule="nonzero"/><path fill="#211a15" d="M 947.355469 1156.132812 C 947.355469 1156.121094 946.878906 1155.945312 946.019531 1155.59375 C 943.011719 1154.378906 935.371094 1151.152344 928.035156 1147 C 924.367188 1144.933594 920.777344 1142.625 917.894531 1140.257812 C 915.011719 1137.90625 912.859375 1135.464844 912.007812 1133.3125 C 911.710938 1132.582031 911.554688 1131.785156 911.554688 1130.933594 C 911.542969 1128.164062 913.222656 1124.78125 916.515625 1122.121094 C 919.808594 1119.457031 924.667969 1117.511719 930.898438 1117.503906 C 935.359375 1117.503906 940.515625 1118.507812 946.292969 1120.992188 C 950.050781 1122.59375 954.898438 1126.050781 959.382812 1130.351562 C 963.867188 1134.636719 968.019531 1139.773438 970.550781 1144.65625 L 973.058594 1143.363281 C 970.328125 1138.082031 966 1132.78125 961.339844 1128.304688 C 956.65625 1123.84375 951.664062 1120.21875 947.410156 1118.398438 C 941.324219 1115.777344 935.777344 1114.675781 930.898438 1114.675781 C 924.082031 1114.675781 918.558594 1116.828125 914.738281 1119.921875 C 910.925781 1123.015625 908.75 1127.058594 908.726562 1130.933594 C 908.726562 1132.117188 908.949219 1133.289062 909.390625 1134.382812 C 910.75 1137.683594 913.765625 1140.691406 917.464844 1143.519531 C 928.554688 1151.96875 946.28125 1158.742188 946.347656 1158.761719 L 947.355469 1156.132812 " fill-opacity="1" fill-rule="nonzero"/><path fill="#211a15" d="M 976.328125 1089.941406 L 976.414062 1089.972656 C 977.441406 1090.46875 986.984375 1095.296875 996.230469 1106.410156 C 1005.476562 1117.546875 1014.46875 1134.933594 1014.476562 1160.828125 C 1014.476562 1166.109375 1014.101562 1171.734375 1013.273438 1177.730469 L 1016.078125 1178.117188 C 1016.917969 1171.996094 1017.304688 1166.242188 1017.304688 1160.828125 C 1017.304688 1133.410156 1007.410156 1114.996094 997.480469 1103.503906 C 987.550781 1092.027344 977.640625 1087.433594 977.519531 1087.367188 L 976.339844 1089.941406 " fill-opacity="1" fill-rule="nonzero"/><path fill="#211a15" d="M 1023.710938 1094.964844 L 1023.757812 1095.011719 C 1024.773438 1096.058594 1043.882812 1116.023438 1043.890625 1160.761719 C 1043.890625 1170.484375 1042.988281 1181.367188 1040.800781 1193.484375 L 1043.582031 1193.980469 C 1045.804688 1181.707031 1046.71875 1170.648438 1046.71875 1160.761719 C 1046.730469 1113.722656 1025.886719 1093.121094 1025.6875 1092.945312 L 1023.710938 1094.964844 " fill-opacity="1" fill-rule="nonzero"/><path fill="#211a15" d="M 1051.667969 1099.726562 L 1051.691406 1099.761719 C 1052.351562 1100.675781 1064.722656 1118.132812 1064.722656 1150.125 C 1064.722656 1162.222656 1062.957031 1176.394531 1058.117188 1192.566406 L 1060.824219 1193.375 C 1065.742188 1176.957031 1067.550781 1162.496094 1067.550781 1150.125 C 1067.550781 1116.320312 1054.054688 1098.191406 1053.933594 1098.027344 L 1051.667969 1099.726562 " fill-opacity="1" fill-rule="nonzero"/><path fill="#211a15" d="M 1239.5625 1178.859375 L 779.59375 1178.859375 L 779.59375 1211.777344 L 1247.019531 1211.777344 L 1239.5625 1178.859375 " fill-opacity="1" fill-rule="nonzero"/><path fill="#211a15" d="M 1229.867188 1178.859375 L 1416.25 843.335938 L 1439.355469 857.507812 L 1247.019531 1211.777344 L 1229.867188 1178.859375 " fill-opacity="1" fill-rule="nonzero"/><path fill="#2d5d45" d="M 293.957031 677.816406 C 195.285156 720.554688 128.285156 799.664062 51.054688 1004.886719 C 51.054688 1004.886719 136.402344 1041.664062 299.425781 1035.710938 C 299.425781 1035.710938 406.554688 629.042969 293.957031 677.816406 " fill-opacity="1" fill-rule="nonzero"/><path fill="#2d5d45" d="M 614.386719 694.21875 C 552.640625 645.886719 572.832031 809.816406 574.492188 1022.5625 C 574.492188 1022.5625 704.597656 1023.359375 738.726562 973.703125 C 738.726562 973.703125 703.292969 763.828125 614.386719 694.21875 " fill-opacity="1" fill-rule="nonzero"/><path fill="#753a1a" d="M 511.167969 467.476562 C 534.351562 453.558594 534.285156 429.761719 534.285156 429.761719 C 538.195312 458.097656 591.46875 476.945312 608.644531 432.269531 C 608.644531 432.269531 634.445312 490.289062 678.539062 470.214844 C 705.136719 458.109375 726.410156 409.523438 653.089844 356.144531 C 603.960938 320.363281 471.027344 257.527344 428.058594 448.101562 L 472.683594 476.171875 C 472.683594 476.171875 493.671875 477.984375 511.167969 467.476562 " fill-opacity="1" fill-rule="nonzero"/><path fill="#f0aa66" d="M 388.78125 634.445312 C 388.78125 634.445312 430.667969 674.808594 510.648438 672.347656 C 521.0625 672.027344 539.71875 667.375 543.363281 646.507812 L 466.066406 628.863281 L 388.78125 634.445312 " fill-opacity="1" fill-rule="nonzero"/><path fill="#211a15" d="M 667.890625 1012.035156 L 646.464844 881.269531 L 643.679688 881.722656 L 665.097656 1012.5 " fill-opacity="1" fill-rule="nonzero"/><path fill="#211a15" d="M 261.4375 1036.847656 L 312.015625 897.507812 L 309.355469 896.539062 L 258.777344 1035.875 " fill-opacity="1" fill-rule="nonzero"/><path fill="#e15a1c" d="M 641.105469 330.957031 C 641.105469 330.957031 453.507812 354.785156 419.34375 514.835938 C 419.34375 514.835938 379.535156 484.421875 371.707031 421.851562 C 365.929688 375.652344 392.957031 309.183594 483.34375 281.433594 C 551.007812 260.664062 617.976562 276.617188 641.105469 330.957031 " fill-opacity="1" fill-rule="nonzero"/><path fill="#f0aa66" d="M 472.683594 476.171875 C 472.683594 476.171875 473.6875 427.1875 436.476562 435.308594 C 423.199219 438.203125 402.800781 461.535156 426.039062 488.664062 L 472.683594 476.171875 " fill-opacity="1" fill-rule="nonzero"/><path fill="#211a15" d="M 457.519531 488.136719 L 441.304688 434.566406 C 441.082031 433.816406 440.289062 433.398438 439.546875 433.617188 C 438.796875 433.847656 438.375 434.632812 438.597656 435.386719 L 454.8125 488.953125 C 455.042969 489.691406 455.828125 490.125 456.578125 489.890625 C 457.320312 489.671875 457.75 488.875 457.519531 488.136719 " fill-opacity="1" fill-rule="nonzero"/><path fill="#753a1a" d="M 629.132812 310.664062 C 629.132812 310.664062 610.199219 310.023438 581.582031 317.046875 L 572.160156 299.648438 C 572.160156 299.648438 595.644531 293.515625 613.226562 294.988281 C 613.226562 294.988281 623.566406 302.742188 629.132812 310.664062 " fill-opacity="1" fill-rule="nonzero"/><path fill="#211a15" d="M 1015.25 1146.578125 C 1015.21875 1146.578125 1014.601562 1146.511719 1013.617188 1146.511719 C 1011.671875 1146.523438 1008.292969 1146.742188 1005.121094 1148.289062 C 1003.53125 1149.074219 1002.007812 1150.203125 1000.816406 1151.824219 C 999.621094 1153.4375 998.792969 1155.527344 998.574219 1158.078125 C 998.527344 1158.585938 998.507812 1159.117188 998.507812 1159.65625 C 998.507812 1163.316406 999.566406 1167.589844 1002.152344 1171.136719 C 1004.714844 1174.691406 1008.910156 1177.445312 1014.789062 1177.796875 L 1014.964844 1174.980469 C 1009.882812 1174.636719 1006.601562 1172.417969 1004.425781 1169.480469 C 1002.273438 1166.53125 1001.324219 1162.773438 1001.332031 1159.65625 C 1001.332031 1159.195312 1001.355469 1158.753906 1001.390625 1158.332031 C 1001.578125 1156.222656 1002.21875 1154.6875 1003.089844 1153.492188 C 1004.394531 1151.726562 1006.328125 1150.675781 1008.324219 1150.070312 C 1010.324219 1149.472656 1012.347656 1149.339844 1013.617188 1149.339844 C 1014.046875 1149.339844 1014.390625 1149.351562 1014.621094 1149.363281 L 1014.886719 1149.382812 L 1014.953125 1149.394531 L 1015.25 1146.578125 " fill-opacity="1" fill-rule="nonzero"/><path fill="#211a15" d="M 1045.605469 1155.847656 C 1045.539062 1155.835938 1044.089844 1155.527344 1042.082031 1155.527344 C 1040.226562 1155.527344 1037.863281 1155.78125 1035.664062 1156.894531 C 1033.464844 1158 1031.476562 1160.089844 1030.714844 1163.335938 C 1030.304688 1165.027344 1030.007812 1167.214844 1030.007812 1169.578125 C 1030.019531 1172.914062 1030.582031 1176.625 1032.4375 1179.675781 C 1033.367188 1181.1875 1034.636719 1182.527344 1036.316406 1183.464844 C 1037.984375 1184.402344 1040.015625 1184.933594 1042.402344 1184.921875 C 1043.074219 1184.921875 1043.78125 1184.890625 1044.523438 1184.800781 L 1044.203125 1181.996094 C 1043.5625 1182.0625 1042.964844 1182.09375 1042.402344 1182.09375 C 1040.425781 1182.09375 1038.910156 1181.675781 1037.695312 1181 C 1035.894531 1179.984375 1034.703125 1178.328125 1033.917969 1176.285156 C 1033.144531 1174.242188 1032.835938 1171.832031 1032.835938 1169.578125 C 1032.835938 1167.445312 1033.113281 1165.445312 1033.453125 1164.011719 C 1034.082031 1161.523438 1035.363281 1160.253906 1036.957031 1159.414062 C 1038.546875 1158.597656 1040.492188 1158.34375 1042.082031 1158.355469 C 1042.929688 1158.355469 1043.683594 1158.421875 1044.210938 1158.488281 C 1044.476562 1158.519531 1044.6875 1158.554688 1044.820312 1158.574219 L 1044.976562 1158.609375 L 1045.007812 1158.621094 L 1045.605469 1155.847656 " fill-opacity="1" fill-rule="nonzero"/><path fill="#211a15" d="M 1065.308594 1158.929688 C 1065.242188 1158.90625 1063.839844 1158.585938 1061.929688 1158.585938 C 1059.71875 1158.597656 1056.738281 1158.984375 1054.484375 1161.128906 C 1053.414062 1162.1875 1052.738281 1163.710938 1052.230469 1165.511719 C 1051.722656 1167.3125 1051.449219 1169.402344 1051.449219 1171.523438 C 1051.449219 1174.304688 1051.921875 1177.144531 1053.191406 1179.453125 C 1053.832031 1180.601562 1054.695312 1181.632812 1055.820312 1182.359375 C 1056.9375 1183.089844 1058.316406 1183.507812 1059.84375 1183.496094 C 1060.425781 1183.496094 1061.023438 1183.441406 1061.652344 1183.332031 L 1061.144531 1180.546875 C 1060.671875 1180.636719 1060.238281 1180.667969 1059.84375 1180.667969 C 1058.804688 1180.667969 1058.03125 1180.414062 1057.355469 1179.984375 C 1056.363281 1179.34375 1055.578125 1178.207031 1055.046875 1176.691406 C 1054.519531 1175.203125 1054.273438 1173.355469 1054.273438 1171.523438 C 1054.273438 1169.65625 1054.527344 1167.789062 1054.949219 1166.265625 C 1055.359375 1164.75 1056 1163.570312 1056.441406 1163.171875 C 1057.808594 1161.824219 1060.0625 1161.402344 1061.929688 1161.414062 C 1062.726562 1161.414062 1063.433594 1161.480469 1063.929688 1161.558594 L 1064.503906 1161.648438 L 1064.65625 1161.667969 L 1064.691406 1161.679688 L 1065.308594 1158.929688 " fill-opacity="1" fill-rule="nonzero"/><path fill="#211a15" d="M 1088.527344 1162.828125 C 1088.429688 1162.796875 1086.316406 1161.933594 1083.558594 1161.921875 C 1082.320312 1161.921875 1080.949219 1162.109375 1079.589844 1162.652344 C 1078.234375 1163.191406 1076.894531 1164.132812 1075.804688 1165.546875 C 1074.644531 1167.082031 1073.605469 1169.246094 1072.832031 1171.710938 C 1072.046875 1174.175781 1071.539062 1176.914062 1071.527344 1179.519531 C 1071.539062 1181.972656 1071.980469 1184.359375 1073.285156 1186.257812 C 1074.578125 1188.183594 1076.851562 1189.40625 1079.734375 1189.386719 C 1080.363281 1189.386719 1081.015625 1189.332031 1081.710938 1189.230469 L 1081.292969 1186.425781 C 1080.71875 1186.515625 1080.199219 1186.558594 1079.734375 1186.558594 C 1077.570312 1186.523438 1076.445312 1185.816406 1075.605469 1184.65625 C 1074.785156 1183.476562 1074.355469 1181.632812 1074.355469 1179.519531 C 1074.355469 1177.289062 1074.820312 1174.792969 1075.515625 1172.5625 C 1076.222656 1170.339844 1077.183594 1168.386719 1078.046875 1167.269531 C 1078.828125 1166.265625 1079.703125 1165.65625 1080.652344 1165.269531 C 1081.589844 1164.894531 1082.597656 1164.75 1083.558594 1164.75 C 1084.628906 1164.75 1085.632812 1164.9375 1086.351562 1165.117188 C 1086.714844 1165.203125 1087.003906 1165.292969 1087.203125 1165.359375 L 1087.410156 1165.4375 L 1087.46875 1165.457031 L 1088.527344 1162.828125 " fill-opacity="1" fill-rule="nonzero"/><g clip-path="url(#705653db40)"><path fill="#211a15" d="M 687.363281 1281.253906 C 699.207031 1279.808594 729.648438 1273.796875 714.734375 1242.113281 C 698.199219 1206.960938 651.621094 1168.417969 568.625 1189.296875 C 548.179688 1194.433594 482.480469 1226.03125 522.898438 1260.144531 C 548.511719 1281.75 631.605469 1288.082031 687.363281 1281.253906 " fill-opacity="1" fill-rule="nonzero"/></g><path fill="#f0aa66" d="M 167.550781 1077.457031 C 274.570312 1073.734375 614.386719 1077.136719 664.542969 1146.046875 C 674.507812 1159.746094 712.703125 1216.847656 669.019531 1213.65625 C 652.183594 1212.417969 640.113281 1189.496094 629.277344 1174.328125 C 621.796875 1163.867188 604.269531 1155.316406 581.050781 1154.5 C 581.050781 1154.5 631.484375 1178.625 629.277344 1240.6875 C 628.957031 1249.417969 624.847656 1268.671875 600.425781 1260.375 C 600.425781 1260.375 588.507812 1283.828125 559.679688 1261.667969 C 559.679688 1261.667969 550.234375 1284.734375 503.015625 1260.375 C 503.015625 1260.375 462.210938 1246.070312 403.121094 1253.914062 C 309.496094 1266.339844 69.664062 1296.15625 29.382812 1198.742188 C 11.820312 1156.265625 67.378906 1080.945312 167.550781 1077.457031 " fill-opacity="1" fill-rule="nonzero"/><path fill="#211a15" d="M 585.449219 1154.125 C 585.316406 1154.035156 563.167969 1140.09375 520.710938 1134.117188 L 520.3125 1136.921875 C 541.308594 1139.871094 557.25 1144.789062 567.917969 1148.964844 C 573.253906 1151.050781 577.285156 1152.953125 579.957031 1154.324219 C 581.292969 1155.007812 582.300781 1155.558594 582.960938 1155.933594 C 583.292969 1156.132812 583.546875 1156.277344 583.703125 1156.378906 L 583.933594 1156.507812 L 585.449219 1154.125 " fill-opacity="1" fill-rule="nonzero"/><path fill="#211a15" d="M 496.277344 1167.324219 C 496.289062 1167.324219 496.675781 1167.402344 497.4375 1167.566406 C 503.113281 1168.828125 528.929688 1175.101562 553.207031 1189.21875 C 565.332031 1196.28125 577.074219 1205.292969 585.734375 1216.574219 C 594.40625 1227.839844 600.027344 1241.339844 600.027344 1257.570312 C 600.027344 1259.324219 599.960938 1261.105469 599.828125 1262.925781 L 602.644531 1263.136719 C 602.789062 1261.246094 602.855469 1259.390625 602.855469 1257.570312 C 602.867188 1239.550781 596.152344 1224.636719 586.144531 1212.539062 C 571.144531 1194.402344 548.832031 1182.460938 530.277344 1174.992188 C 511.71875 1167.523438 496.894531 1164.5625 496.839844 1164.550781 L 496.289062 1167.324219 " fill-opacity="1" fill-rule="nonzero"/><path fill="#211a15" d="M 465.03125 1204.113281 C 465.03125 1204.113281 465.382812 1204.179688 466.078125 1204.289062 C 471.238281 1205.183594 494.664062 1209.535156 516.667969 1218.441406 C 527.679688 1222.882812 538.316406 1228.472656 546.125 1235.230469 C 553.933594 1242.015625 558.851562 1249.847656 558.851562 1258.949219 C 558.851562 1260.464844 558.71875 1262 558.429688 1263.601562 L 561.214844 1264.085938 C 561.523438 1262.339844 561.679688 1260.628906 561.679688 1258.949219 C 561.667969 1248.070312 555.382812 1239.019531 546.300781 1231.695312 C 532.648438 1220.671875 512.492188 1213.148438 495.703125 1208.296875 C 478.914062 1203.449219 465.503906 1201.328125 465.472656 1201.316406 L 465.03125 1204.113281 " fill-opacity="1" fill-rule="nonzero"/><path fill="#211a15" d="M 536.050781 1224.4375 C 535.984375 1224.472656 533.113281 1225.433594 530.144531 1227.445312 C 528.664062 1228.460938 527.148438 1229.742188 525.980469 1231.355469 C 524.796875 1232.96875 523.957031 1234.945312 523.96875 1237.21875 C 523.957031 1239.714844 524.972656 1242.457031 527.261719 1245.351562 C 534.285156 1254.234375 541.996094 1258.097656 548.488281 1258.109375 C 553.527344 1258.121094 557.824219 1255.691406 559.988281 1251.625 L 557.503906 1250.289062 C 555.824219 1253.382812 552.652344 1255.261719 548.488281 1255.28125 C 543.15625 1255.292969 536.128906 1252.023438 529.480469 1243.59375 C 527.46875 1241.042969 526.796875 1238.953125 526.796875 1237.21875 C 526.796875 1235.640625 527.347656 1234.269531 528.253906 1233.011719 C 529.625 1231.132812 531.8125 1229.609375 533.65625 1228.613281 C 534.582031 1228.105469 535.421875 1227.730469 536.019531 1227.476562 C 536.316406 1227.355469 536.558594 1227.265625 536.726562 1227.199219 L 536.957031 1227.121094 L 536.050781 1224.4375 " fill-opacity="1" fill-rule="nonzero"/><path fill="#211a15" d="M 246.171875 1075.070312 L 169.78125 1075.964844 L 169.816406 1078.792969 L 246.207031 1077.898438 " fill-opacity="1" fill-rule="nonzero"/><path fill="#753a1a" d="M 699.625 405.558594 C 699.648438 405.558594 699.988281 405.578125 700.574219 405.578125 C 702.882812 405.570312 709.003906 405.292969 714.734375 402.242188 C 717.597656 400.707031 720.367188 398.464844 722.390625 395.207031 C 724.433594 391.949219 725.703125 387.707031 725.703125 382.316406 C 725.691406 375.234375 723.539062 366.152344 718.082031 354.375 L 715.519531 355.558594 C 720.855469 367.089844 722.875 375.820312 722.875 382.316406 C 722.863281 387.273438 721.726562 390.929688 719.992188 393.703125 C 717.410156 397.859375 713.410156 400.121094 709.566406 401.359375 C 705.734375 402.585938 702.121094 402.75 700.574219 402.75 C 700.308594 402.75 700.113281 402.742188 699.980469 402.742188 L 699.792969 402.730469 L 699.625 405.558594 " fill-opacity="1" fill-rule="nonzero"/><path fill="#753a1a" d="M 532.871094 429.863281 C 532.871094 429.863281 532.894531 430.050781 532.902344 430.445312 C 532.914062 430.84375 532.9375 431.429688 532.9375 432.171875 C 532.9375 436.886719 532.285156 447.988281 527.136719 457.734375 C 524.566406 462.605469 520.898438 467.132812 515.628906 470.460938 C 510.359375 473.785156 503.46875 475.929688 494.320312 475.9375 C 488.789062 475.9375 482.4375 475.144531 475.148438 473.332031 L 474.460938 476.070312 C 481.929688 477.925781 488.511719 478.765625 494.320312 478.765625 C 503.910156 478.765625 511.386719 476.480469 517.140625 472.847656 C 525.78125 467.386719 530.429688 459.003906 532.914062 451.148438 C 535.402344 443.285156 535.765625 435.894531 535.765625 432.171875 C 535.765625 430.601562 535.699219 429.683594 535.699219 429.664062 L 532.871094 429.863281 " fill-opacity="1" fill-rule="nonzero"/><path fill="#753a1a" d="M 700.011719 476.082031 C 700.132812 476.039062 705.28125 474.824219 710.496094 470.714844 C 715.71875 466.625 720.988281 459.46875 720.964844 448.054688 C 720.964844 441.230469 719.109375 432.910156 714.425781 422.78125 L 711.851562 423.960938 C 716.425781 433.828125 718.136719 441.75 718.136719 448.054688 C 718.117188 458.585938 713.453125 464.75 708.75 468.492188 C 706.386719 470.347656 704.023438 471.574219 702.242188 472.316406 C 701.359375 472.691406 700.621094 472.945312 700.121094 473.109375 L 699.535156 473.277344 L 699.40625 473.308594 L 699.371094 473.320312 L 700.011719 476.082031 " fill-opacity="1" fill-rule="nonzero"/><path fill="#211a15" d="M 583.09375 1210.375 C 582.996094 1210.398438 579.382812 1210.863281 575.660156 1213.082031 C 573.792969 1214.199219 571.894531 1215.753906 570.460938 1217.941406 C 569.011719 1220.128906 568.0625 1222.945312 568.0625 1226.40625 C 568.0625 1228.261719 568.339844 1230.304688 568.933594 1232.558594 C 569.796875 1235.773438 572.015625 1239.59375 575.40625 1242.734375 C 578.796875 1245.847656 583.425781 1248.257812 588.980469 1248.257812 C 592.308594 1248.257812 595.929688 1247.382812 599.75 1245.371094 L 598.425781 1242.863281 C 594.96875 1244.699219 591.808594 1245.429688 588.980469 1245.429688 C 584.265625 1245.429688 580.324219 1243.40625 577.316406 1240.644531 C 574.324219 1237.90625 572.335938 1234.402344 571.664062 1231.828125 C 571.121094 1229.785156 570.890625 1227.984375 570.890625 1226.40625 C 570.902344 1223.457031 571.675781 1221.246094 572.824219 1219.5 C 574.535156 1216.882812 577.1875 1215.269531 579.449219 1214.339844 C 580.585938 1213.878906 581.605469 1213.578125 582.332031 1213.414062 C 582.707031 1213.324219 582.996094 1213.269531 583.195312 1213.226562 L 583.414062 1213.191406 L 583.46875 1213.179688 L 583.09375 1210.375 " fill-opacity="1" fill-rule="nonzero"/><path fill="#211a15" d="M 621.921875 1198.289062 C 621.832031 1198.3125 617.867188 1198.808594 613.769531 1201.097656 C 611.726562 1202.246094 609.636719 1203.847656 608.058594 1206.101562 C 606.457031 1208.355469 605.394531 1211.269531 605.40625 1214.839844 L 605.40625 1215.246094 C 605.507812 1219.347656 606.675781 1225.265625 609.671875 1230.347656 C 611.160156 1232.878906 613.140625 1235.199219 615.691406 1236.898438 C 618.242188 1238.601562 621.390625 1239.652344 625.066406 1239.640625 C 626.480469 1239.640625 627.972656 1239.484375 629.550781 1239.164062 L 628.988281 1236.390625 C 627.585938 1236.679688 626.273438 1236.8125 625.066406 1236.8125 C 621.910156 1236.8125 619.378906 1235.949219 617.257812 1234.535156 C 614.078125 1232.4375 611.824219 1229.011719 610.378906 1225.378906 C 608.929688 1221.742188 608.289062 1217.910156 608.234375 1215.179688 L 608.234375 1214.839844 C 608.234375 1211.824219 609.097656 1209.546875 610.367188 1207.734375 C 612.277344 1205.007812 615.25 1203.316406 617.777344 1202.332031 C 619.046875 1201.835938 620.195312 1201.527344 621.015625 1201.339844 C 621.421875 1201.25 621.753906 1201.183594 621.976562 1201.140625 L 622.21875 1201.097656 L 622.296875 1201.097656 L 621.921875 1198.289062 " fill-opacity="1" fill-rule="nonzero"/><path fill="#211a15" d="M 675.746094 1163.316406 C 675.667969 1163.347656 672.109375 1164.605469 668.464844 1167.257812 C 666.65625 1168.59375 664.800781 1170.273438 663.386719 1172.382812 C 661.960938 1174.472656 660.976562 1177.023438 660.976562 1179.929688 C 660.976562 1181.15625 661.152344 1182.449219 661.53125 1183.773438 C 662.359375 1186.691406 664.46875 1190.5 667.605469 1193.726562 C 670.742188 1196.929688 674.972656 1199.558594 679.976562 1199.570312 C 683.078125 1199.582031 686.402344 1198.53125 689.738281 1196.125 L 688.09375 1193.828125 C 685.132812 1195.949219 682.4375 1196.742188 679.976562 1196.742188 C 676.019531 1196.753906 672.429688 1194.621094 669.625 1191.75 C 666.84375 1188.898438 664.886719 1185.332031 664.246094 1183.011719 C 663.9375 1181.917969 663.804688 1180.890625 663.804688 1179.929688 C 663.804688 1177.664062 664.554688 1175.710938 665.726562 1173.964844 C 667.472656 1171.355469 670.222656 1169.324219 672.554688 1167.976562 C 673.710938 1167.300781 674.761719 1166.792969 675.511719 1166.464844 C 675.886719 1166.296875 676.1875 1166.175781 676.398438 1166.085938 L 676.628906 1166.011719 L 676.683594 1165.976562 L 675.746094 1163.316406 " fill-opacity="1" fill-rule="nonzero"/><path fill="#211a15" d="M 693.628906 1214.574219 L 1317.257812 1214.574219 L 1317.257812 1211.746094 L 693.628906 1211.746094 Z M 693.628906 1214.574219 " fill-opacity="1" fill-rule="nonzero"/><path fill="#211a15" d="M 360.351562 648.085938 C 360.472656 648.152344 420.40625 700.605469 492.167969 700.660156 C 505.875 700.660156 520.003906 698.726562 534.207031 694.152344 C 542.503906 691.480469 549.382812 687.195312 554.1875 681.152344 C 558.984375 675.109375 561.644531 667.332031 561.644531 657.898438 L 561.644531 657.851562 C 561.65625 657.078125 561.039062 656.425781 560.253906 656.417969 C 559.46875 656.40625 558.828125 657.023438 558.816406 657.808594 L 558.816406 657.898438 C 558.804688 666.8125 556.34375 673.882812 551.96875 679.394531 C 547.59375 684.90625 541.242188 688.90625 533.347656 691.457031 C 519.441406 695.941406 505.609375 697.832031 492.167969 697.832031 C 456.988281 697.832031 424.460938 684.886719 400.753906 671.894531 C 388.894531 665.398438 379.25 658.902344 372.566406 654.042969 C 369.230469 651.601562 366.636719 649.578125 364.878906 648.164062 C 363.996094 647.457031 363.320312 646.894531 362.878906 646.519531 C 362.425781 646.140625 362.207031 645.953125 362.207031 645.953125 C 361.621094 645.433594 360.726562 645.5 360.21875 646.085938 C 359.699219 646.671875 359.765625 647.566406 360.351562 648.085938 " fill-opacity="1" fill-rule="nonzero"/><path fill="#211a15" d="M 65.511719 968.054688 C 65.566406 968.066406 179.226562 1000.304688 272.75 1000.3125 C 273.070312 1000.3125 273.390625 1000.3125 273.710938 1000.3125 L 273.710938 997.484375 C 273.390625 997.484375 273.070312 997.484375 272.75 997.484375 C 226.300781 997.484375 174.652344 989.453125 134.648438 981.414062 C 114.644531 977.390625 97.542969 973.371094 85.449219 970.355469 C 79.398438 968.839844 74.601562 967.59375 71.324219 966.707031 C 68.042969 965.835938 66.285156 965.339844 66.273438 965.339844 L 65.511719 968.054688 " fill-opacity="1" fill-rule="nonzero"/><path fill="#211a15" d="M 660.46875 974.839844 C 660.511719 974.828125 672.71875 971.902344 687.761719 965.835938 C 702.804688 959.761719 720.699219 950.578125 732.175781 937.808594 L 730.078125 935.921875 C 719.144531 948.128906 701.546875 957.242188 686.703125 963.21875 C 679.28125 966.210938 672.542969 968.433594 667.671875 969.902344 C 665.230469 970.628906 663.261719 971.183594 661.90625 971.546875 C 660.546875 971.910156 659.804688 972.089844 659.804688 972.089844 L 660.46875 974.839844 " fill-opacity="1" fill-rule="nonzero"/><path fill="#211a15" d="M 239.3125 709.488281 C 246.472656 706.117188 254.855469 704.195312 263.546875 704.195312 C 278.558594 704.207031 294.429688 709.894531 306.601562 723.582031 C 318.777344 737.269531 327.3125 759.066406 327.3125 791.5 C 327.3125 797.257812 327.046875 803.34375 326.484375 809.773438 L 329.300781 810.027344 C 329.875 803.507812 330.140625 797.34375 330.140625 791.5 C 330.152344 758.589844 321.460938 736.03125 308.722656 721.703125 C 295.988281 707.367188 279.265625 701.367188 263.546875 701.367188 C 254.445312 701.367188 245.652344 703.378906 238.109375 706.933594 L 239.3125 709.488281 " fill-opacity="1" fill-rule="nonzero"/><path fill="#211a15" d="M 658.070312 475.773438 C 658.105469 475.773438 659.164062 475.871094 660.964844 475.871094 C 666.035156 475.863281 676.980469 475.144531 686.835938 469.34375 C 691.75 466.4375 696.390625 462.242188 699.769531 456.242188 C 703.160156 450.253906 705.269531 442.511719 705.269531 432.566406 C 705.269531 429.640625 705.082031 426.523438 704.707031 423.210938 C 704.605469 422.425781 703.910156 421.875 703.136719 421.960938 C 702.355469 422.050781 701.800781 422.757812 701.890625 423.53125 C 702.265625 426.757812 702.441406 429.761719 702.441406 432.566406 C 702.441406 442.113281 700.433594 449.335938 697.304688 454.859375 C 692.644531 463.125 685.441406 467.644531 678.40625 470.140625 C 671.382812 472.636719 664.566406 473.042969 660.964844 473.042969 C 660.117188 473.042969 659.441406 473.023438 658.988281 473 L 658.480469 472.96875 L 658.316406 472.957031 C 657.542969 472.890625 656.855469 473.464844 656.78125 474.238281 C 656.714844 475.023438 657.289062 475.707031 658.070312 475.773438 " fill-opacity="1" fill-rule="nonzero"/><path fill="#211a15" d="M 609.871094 431.5625 L 594.671875 405.039062 C 594.285156 404.363281 593.421875 404.132812 592.75 404.519531 C 592.0625 404.90625 591.832031 405.765625 592.21875 406.453125 L 607.417969 432.976562 C 607.804688 433.652344 608.664062 433.882812 609.351562 433.496094 C 610.023438 433.109375 610.257812 432.246094 609.871094 431.5625 " fill-opacity="1" fill-rule="nonzero"/><path fill="#211a15" d="M 535.523438 432.292969 L 535.765625 413.445312 C 535.777344 412.660156 535.144531 412.019531 534.363281 412.007812 C 533.589844 412 532.949219 412.628906 532.9375 413.414062 L 532.695312 432.257812 C 532.683594 433.03125 533.3125 433.671875 534.097656 433.683594 C 534.882812 433.695312 535.511719 433.074219 535.523438 432.292969 " fill-opacity="1" fill-rule="nonzero"/><path fill="#211a15" d="M 698.035156 397.957031 C 698.035156 397.957031 697.757812 397.933594 697.21875 397.867188 C 693.40625 397.394531 677.046875 394.765625 663.96875 384.84375 C 663.351562 384.371094 662.46875 384.492188 661.992188 385.121094 C 661.519531 385.738281 661.652344 386.621094 662.269531 387.097656 C 678.03125 399.019531 697.648438 400.753906 697.769531 400.773438 C 698.554688 400.851562 699.238281 400.277344 699.316406 399.503906 C 699.382812 398.71875 698.808594 398.035156 698.035156 397.96875 " fill-opacity="1" fill-rule="nonzero"/><path fill="#f0aa66" d="M 688.28125 1251.527344 C 688.191406 1251.347656 667.425781 1213.335938 610.765625 1191 L 609.726562 1193.628906 C 637.648438 1204.632812 656.679688 1219.488281 668.742188 1231.574219 C 674.761719 1237.617188 679.035156 1242.964844 681.808594 1246.796875 C 683.191406 1248.710938 684.195312 1250.246094 684.859375 1251.292969 C 685.179688 1251.8125 685.421875 1252.222656 685.574219 1252.488281 C 685.730469 1252.761719 685.796875 1252.886719 685.808594 1252.886719 L 688.28125 1251.527344 " fill-opacity="1" fill-rule="nonzero"/><path fill="#f0aa66" d="M 622.484375 1259.710938 C 622.496094 1259.722656 626.425781 1259.910156 632.632812 1259.910156 C 643.46875 1259.910156 661.230469 1259.324219 677.359375 1256.066406 C 685.421875 1254.441406 693.0625 1252.144531 699.273438 1248.863281 C 705.46875 1245.582031 710.285156 1241.273438 712.351562 1235.53125 L 709.6875 1234.570312 C 707.976562 1239.375 703.800781 1243.261719 697.957031 1246.367188 C 689.199219 1251.007812 676.871094 1253.722656 664.742188 1255.238281 C 652.617188 1256.75 640.675781 1257.082031 632.632812 1257.082031 C 629.550781 1257.082031 627.046875 1257.039062 625.3125 1256.984375 C 623.578125 1256.9375 622.628906 1256.894531 622.617188 1256.894531 L 622.484375 1259.722656 " fill-opacity="1" fill-rule="nonzero"/></svg>