<svg width="1098" height="1091" viewBox="0 0 1098 1091" fill="none" xmlns="http://www.w3.org/2000/svg">
<path d="M4.263 524.169L148.626 178.066C154.309 164.439 165.211 153.613 178.933 147.969L527.456 4.6084C541.177 -1.03613 556.595 -1.03613 570.316 4.6084L918.839 147.969C932.561 153.613 943.463 164.439 949.146 178.066L1093.51 524.169C1099.19 537.795 1099.19 553.106 1093.51 566.732L949.146 912.836C943.463 926.462 932.561 937.289 918.839 942.932L570.316 1086.29C556.595 1091.94 541.177 1091.94 527.456 1086.29L178.933 942.932C165.211 937.289 154.309 926.462 148.626 912.836L4.263 566.732C-1.421 553.106 -1.421 537.795 4.263 524.169Z" fill="url(#paint0_linear_94_132)"/>
<defs>
<linearGradient id="paint0_linear_94_132" x1="0" y1="-53417" x2="109777" y2="-53417" gradientUnits="userSpaceOnUse">
<stop stop-color="white" stop-opacity="0.5"/>
<stop offset="1" stop-opacity="0.5"/>
</linearGradient>
</defs>
</svg>
