<svg width="592" height="588" viewBox="0 0 592 588" fill="none" xmlns="http://www.w3.org/2000/svg">
<path d="M6.54758 210.45L130.575 44.0004C135.458 37.4469 142.762 33.0883 150.881 31.8837L357.102 1.2777C365.221 0.0724442 373.49 2.11978 380.089 6.96905L547.702 130.135C554.301 134.984 558.69 142.238 559.903 150.301L590.723 355.09C591.937 363.153 589.875 371.364 584.992 377.917L460.965 544.367C456.082 550.92 448.778 555.279 440.658 556.483L234.437 587.089C226.319 588.295 218.05 586.247 211.451 581.398L43.8378 458.232C37.2385 453.383 32.8494 446.129 31.6364 438.066L0.816445 233.277C-0.397214 225.214 1.66444 217.003 6.54758 210.45Z" fill="url(#paint0_linear_94_138)"/>
<defs>
<linearGradient id="paint0_linear_94_138" x1="7267.57" y1="-28719.4" x2="66094.1" y2="-13949.8" gradientUnits="userSpaceOnUse">
<stop stop-color="white" stop-opacity="0.5"/>
<stop offset="1" stop-opacity="0.5"/>
</linearGradient>
</defs>
</svg>
