<svg width="680" height="675" viewBox="0 0 680 675" fill="none" xmlns="http://www.w3.org/2000/svg">
<path d="M5.01627 280.292L122.541 78.146C127.168 70.1871 134.789 64.3796 143.728 62.0015L370.769 1.58846C379.707 -0.790325 389.232 0.454888 397.246 5.04999L600.805 121.759C608.819 126.354 614.667 133.922 617.062 142.799L677.898 368.264C680.293 377.14 679.039 386.598 674.412 394.557L556.887 596.703C552.26 604.661 544.639 610.469 535.7 612.847L308.659 673.26C299.721 675.639 290.196 674.394 282.182 669.799L78.6233 553.089C70.6087 548.495 64.7606 540.926 62.366 532.05L1.53054 306.585C-0.864837 297.709 0.389079 288.25 5.01627 280.292Z" fill="url(#paint0_linear_94_135)"/>
<defs>
<linearGradient id="paint0_linear_94_135" x1="4419.99" y1="-33042.2" x2="72218.6" y2="-24054" gradientUnits="userSpaceOnUse">
<stop stop-color="white" stop-opacity="0.5"/>
<stop offset="1" stop-opacity="0.5"/>
</linearGradient>
</defs>
</svg>
