{
	"asset":{
		"generator":"Khronos glTF Blender I/O v3.6.27",
		"version":"2.0"
	},
	"extensionsUsed":[
		"KHR_materials_specular",
		"KHR_materials_ior"
	],
	"scene":0,
	"scenes":[
		{
			"name":"Scene",
			"nodes":[
				0,
				1,
				2,
				3
			]
		}
	],
	"nodes":[
		{
			"mesh":0,
			"name":"top",
			"rotation":[
				0,
				0.7071068286895752,
				-0.7071068286895752,
				5.338509012631221e-08
			],
			"scale":[
				245.1280517578125,
				553.453857421875,
				245.1280517578125
			],
			"translation":[
				1.105102300643921,
				0.10535025596618652,
				-0.7710269689559937
			]
		},
		{
			"mesh":1,
			"name":"Cylinder.002",
			"rotation":[
				0,
				0.7071068286895752,
				-0.7071068286895752,
				5.338508302088485e-08
			],
			"scale":[
				84.58301544189453,
				0.5534539222717285,
				99.77163696289062
			],
			"translation":[
				-0.8347948789596558,
				3.7955305576324463,
				-0.21757400035858154
			]
		},
		{
			"mesh":2,
			"name":"Curve.002",
			"rotation":[
				0,
				0.7071068286895752,
				-0.7071068286895752,
				5.338509012631221e-08
			],
			"scale":[
				245.1280517578125,
				553.453857421875,
				245.1280517578125
			],
			"translation":[
				1.105102300643921,
				0.10535025596618652,
				0.33588090538978577
			]
		},
		{
			"mesh":3,
			"name":"bottom",
			"rotation":[
				0,
				0.7071068286895752,
				-0.7071068286895752,
				5.338509012631221e-08
			],
			"scale":[
				245.1280517578125,
				553.453857421875,
				245.1280517578125
			],
			"translation":[
				1.105102300643921,
				0.10535025596618652,
				0.33588090538978577
			]
		}
	],
	"materials":[
		{
			"doubleSided":true,
			"extensions":{
				"KHR_materials_specular":{
					"specularColorFactor":[
						0.20695486099962002,
						0.20695486099962002,
						0.20695486099962002
					]
				},
				"KHR_materials_ior":{
					"ior":1.4500000476837158
				}
			},
			"name":"G",
			"pbrMetallicRoughness":{
				"baseColorFactor":[
					0.0797838643193245,
					0.0797838643193245,
					0.0797838643193245,
					1
				],
				"metallicFactor":0.5854545831680298
			}
		},
		{
			"doubleSided":true,
			"extensions":{
				"KHR_materials_specular":{
					"specularColorFactor":[
						0.20695486099962002,
						0.20695486099962002,
						0.20695486099962002
					]
				},
				"KHR_materials_ior":{
					"ior":1.4500000476837158
				}
			},
			"name":"G",
			"pbrMetallicRoughness":{
				"baseColorFactor":[
					0.0797838643193245,
					0.0797838643193245,
					0.0797838643193245,
					1
				],
				"metallicFactor":0.5854545831680298
			}
		},
		{
			"doubleSided":true,
			"name":"Le point",
			"pbrMetallicRoughness":{
				"baseColorFactor":[
					0.9822508096694946,
					0.02315307781100273,
					0.1119324192404747,
					1
				],
				"roughnessFactor":0.5
			}
		}
	],
	"meshes":[
		{
			"name":"Mesh.005",
			"primitives":[
				{
					"attributes":{
						"POSITION":0,
						"NORMAL":1,
						"TEXCOORD_0":2
					},
					"indices":3,
					"material":0
				}
			]
		},
		{
			"name":"Cylinder.006",
			"primitives":[
				{
					"attributes":{
						"POSITION":4,
						"NORMAL":5,
						"TEXCOORD_0":6
					},
					"indices":7,
					"material":1
				}
			]
		},
		{
			"name":"Mesh.006",
			"primitives":[
				{
					"attributes":{
						"POSITION":8,
						"NORMAL":9
					},
					"indices":10,
					"material":2
				}
			]
		},
		{
			"name":"Mesh.007",
			"primitives":[
				{
					"attributes":{
						"POSITION":11,
						"NORMAL":12,
						"TEXCOORD_0":13
					},
					"indices":14,
					"material":0
				}
			]
		}
	],
	"accessors":[
		{
			"bufferView":0,
			"componentType":5126,
			"count":1123,
			"max":[
				0.015804821625351906,
				3.9479841712053415e-17,
				-0.00024101883172988892
			],
			"min":[
				0.0002756738686002791,
				4.2813555356522285e-19,
				-0.02222517319023609
			],
			"type":"VEC3"
		},
		{
			"bufferView":1,
			"componentType":5126,
			"count":1123,
			"type":"VEC3"
		},
		{
			"bufferView":2,
			"componentType":5126,
			"count":1123,
			"type":"VEC2"
		},
		{
			"bufferView":3,
			"componentType":5123,
			"count":2985,
			"type":"SCALAR"
		},
		{
			"bufferView":4,
			"componentType":5126,
			"count":128,
			"max":[
				0.009999999776482582,
				1,
				0.009999999776482582
			],
			"min":[
				-0.009999999776482582,
				-1,
				-0.009999999776482582
			],
			"type":"VEC3"
		},
		{
			"bufferView":5,
			"componentType":5126,
			"count":128,
			"type":"VEC3"
		},
		{
			"bufferView":6,
			"componentType":5126,
			"count":128,
			"type":"VEC2"
		},
		{
			"bufferView":7,
			"componentType":5123,
			"count":192,
			"type":"SCALAR"
		},
		{
			"bufferView":8,
			"componentType":5126,
			"count":530,
			"max":[
				0.02201378345489502,
				0.002000001259148121,
				-0.007618546485900879
			],
			"min":[
				0.017498135566711426,
				0,
				-0.012133240699768066
			],
			"type":"VEC3"
		},
		{
			"bufferView":9,
			"componentType":5126,
			"count":530,
			"type":"VEC3"
		},
		{
			"bufferView":10,
			"componentType":5123,
			"count":1716,
			"type":"SCALAR"
		},
		{
			"bufferView":11,
			"componentType":5126,
			"count":17117,
			"max":[
				0.015804821625351906,
				0.001999999862164259,
				-0.00024101884628180414
			],
			"min":[
				0.0002756738686002791,
				4.2813555356522285e-19,
				-0.02222517319023609
			],
			"type":"VEC3"
		},
		{
			"bufferView":12,
			"componentType":5126,
			"count":17117,
			"type":"VEC3"
		},
		{
			"bufferView":13,
			"componentType":5126,
			"count":17117,
			"type":"VEC2"
		},
		{
			"bufferView":14,
			"componentType":5123,
			"count":81513,
			"type":"SCALAR"
		}
	],
	"bufferViews":[
		{
			"buffer":0,
			"byteLength":13476,
			"byteOffset":0,
			"target":34962
		},
		{
			"buffer":0,
			"byteLength":13476,
			"byteOffset":13476,
			"target":34962
		},
		{
			"buffer":0,
			"byteLength":8984,
			"byteOffset":26952,
			"target":34962
		},
		{
			"buffer":0,
			"byteLength":5970,
			"byteOffset":35936,
			"target":34963
		},
		{
			"buffer":0,
			"byteLength":1536,
			"byteOffset":41908,
			"target":34962
		},
		{
			"buffer":0,
			"byteLength":1536,
			"byteOffset":43444,
			"target":34962
		},
		{
			"buffer":0,
			"byteLength":1024,
			"byteOffset":44980,
			"target":34962
		},
		{
			"buffer":0,
			"byteLength":384,
			"byteOffset":46004,
			"target":34963
		},
		{
			"buffer":0,
			"byteLength":6360,
			"byteOffset":46388,
			"target":34962
		},
		{
			"buffer":0,
			"byteLength":6360,
			"byteOffset":52748,
			"target":34962
		},
		{
			"buffer":0,
			"byteLength":3432,
			"byteOffset":59108,
			"target":34963
		},
		{
			"buffer":0,
			"byteLength":205404,
			"byteOffset":62540,
			"target":34962
		},
		{
			"buffer":0,
			"byteLength":205404,
			"byteOffset":267944,
			"target":34962
		},
		{
			"buffer":0,
			"byteLength":136936,
			"byteOffset":473348,
			"target":34962
		},
		{
			"buffer":0,
			"byteLength":163026,
			"byteOffset":610284,
			"target":34963
		}
	],
	"buffers":[
		{
			"byteLength":773312,
			"uri":"data:application/octet-stream;base64,"
		}
	]
}
